<svg xmlns="http://www.w3.org/2000/svg" xmlns:xlink="http://www.w3.org/1999/xlink" width="1600" zoomAndPan="magnify" viewBox="0 0 1200 1199.999942" height="1600" preserveAspectRatio="xMidYMid meet" version="1.0"><defs><g/><clipPath id="id1"><path d="M 120 636.828125 L 1080.75 636.828125 L 1080.75 1100 L 120 1100 Z M 120 636.828125 " clip-rule="nonzero"/></clipPath><clipPath id="id2"><path d="M 258.089844 223.546875 L 330.839844 223.546875 L 330.839844 337.546875 L 258.089844 337.546875 Z M 258.089844 223.546875 " clip-rule="nonzero"/></clipPath><clipPath id="id3"><path d="M 491 484 L 711 484 L 711 532.5 L 491 532.5 Z M 491 484 " clip-rule="nonzero"/></clipPath></defs><rect x="-120" width="1440" fill="#ffffff" y="-119.999994" height="1439.999931" fill-opacity="1"/><rect x="-120" width="1440" fill="#ffffff" y="-119.999994" height="1439.999931" fill-opacity="1"/><rect x="-120" width="1440" fill="#ffffff" y="-119.999994" height="1439.999931" fill-opacity="1"/><g fill="#000000" fill-opacity="1"><g transform="translate(138.553141, 679.426959)"><g><path d="M 15.171875 -8.75 L 16.953125 -8.75 L 16.953125 -2.078125 C 16.128906 -1.359375 15.160156 -0.804688 14.046875 -0.421875 C 12.929688 -0.0351562 11.757812 0.15625 10.53125 0.15625 C 8.78125 0.15625 7.203125 -0.226562 5.796875 -1 C 4.398438 -1.769531 3.300781 -2.832031 2.5 -4.1875 C 1.695312 -5.539062 1.296875 -7.0625 1.296875 -8.75 C 1.296875 -10.4375 1.695312 -11.957031 2.5 -13.3125 C 3.300781 -14.664062 4.398438 -15.726562 5.796875 -16.5 C 7.203125 -17.269531 8.785156 -17.65625 10.546875 -17.65625 C 11.878906 -17.65625 13.101562 -17.441406 14.21875 -17.015625 C 15.34375 -16.585938 16.285156 -15.957031 17.046875 -15.125 L 15.90625 -13.953125 C 14.519531 -15.316406 12.757812 -16 10.625 -16 C 9.207031 -16 7.925781 -15.6875 6.78125 -15.0625 C 5.644531 -14.4375 4.75 -13.566406 4.09375 -12.453125 C 3.445312 -11.347656 3.125 -10.113281 3.125 -8.75 C 3.125 -7.382812 3.445312 -6.148438 4.09375 -5.046875 C 4.75 -3.953125 5.640625 -3.085938 6.765625 -2.453125 C 7.898438 -1.816406 9.175781 -1.5 10.59375 -1.5 C 12.394531 -1.5 13.921875 -1.945312 15.171875 -2.84375 Z M 15.171875 -8.75 "/></g></g></g><g fill="#000000" fill-opacity="1"><g transform="translate(157.875081, 679.426959)"><g><path d="M 4.171875 -10.578125 C 4.585938 -11.460938 5.207031 -12.128906 6.03125 -12.578125 C 6.863281 -13.023438 7.882812 -13.25 9.09375 -13.25 L 9.09375 -11.53125 L 8.671875 -11.546875 C 7.285156 -11.546875 6.203125 -11.117188 5.421875 -10.265625 C 4.640625 -9.421875 4.25 -8.234375 4.25 -6.703125 L 4.25 0 L 2.46875 0 L 2.46875 -13.15625 L 4.171875 -13.15625 Z M 4.171875 -10.578125 "/></g></g></g><g fill="#000000" fill-opacity="1"><g transform="translate(167.898491, 679.426959)"><g><path d="M 7.84375 0.125 C 6.582031 0.125 5.441406 -0.160156 4.421875 -0.734375 C 3.410156 -1.304688 2.613281 -2.101562 2.03125 -3.125 C 1.445312 -4.144531 1.15625 -5.296875 1.15625 -6.578125 C 1.15625 -7.859375 1.445312 -9.003906 2.03125 -10.015625 C 2.613281 -11.035156 3.410156 -11.828125 4.421875 -12.390625 C 5.441406 -12.960938 6.582031 -13.25 7.84375 -13.25 C 9.113281 -13.25 10.253906 -12.960938 11.265625 -12.390625 C 12.285156 -11.828125 13.082031 -11.035156 13.65625 -10.015625 C 14.238281 -9.003906 14.53125 -7.859375 14.53125 -6.578125 C 14.53125 -5.296875 14.238281 -4.144531 13.65625 -3.125 C 13.082031 -2.101562 12.285156 -1.304688 11.265625 -0.734375 C 10.253906 -0.160156 9.113281 0.125 7.84375 0.125 Z M 7.84375 -1.453125 C 8.78125 -1.453125 9.617188 -1.660156 10.359375 -2.078125 C 11.097656 -2.503906 11.675781 -3.109375 12.09375 -3.890625 C 12.507812 -4.679688 12.71875 -5.578125 12.71875 -6.578125 C 12.71875 -7.578125 12.507812 -8.46875 12.09375 -9.25 C 11.675781 -10.03125 11.097656 -10.632812 10.359375 -11.0625 C 9.617188 -11.488281 8.78125 -11.703125 7.84375 -11.703125 C 6.914062 -11.703125 6.078125 -11.488281 5.328125 -11.0625 C 4.585938 -10.632812 4.003906 -10.03125 3.578125 -9.25 C 3.160156 -8.46875 2.953125 -7.578125 2.953125 -6.578125 C 2.953125 -5.578125 3.160156 -4.679688 3.578125 -3.890625 C 4.003906 -3.109375 4.585938 -2.503906 5.328125 -2.078125 C 6.078125 -1.660156 6.914062 -1.453125 7.84375 -1.453125 Z M 5.28125 -15.75 C 4.976562 -15.75 4.722656 -15.847656 4.515625 -16.046875 C 4.304688 -16.242188 4.203125 -16.503906 4.203125 -16.828125 C 4.203125 -17.128906 4.304688 -17.382812 4.515625 -17.59375 C 4.722656 -17.800781 4.976562 -17.90625 5.28125 -17.90625 C 5.5625 -17.90625 5.804688 -17.800781 6.015625 -17.59375 C 6.234375 -17.382812 6.34375 -17.128906 6.34375 -16.828125 C 6.34375 -16.523438 6.238281 -16.269531 6.03125 -16.0625 C 5.820312 -15.851562 5.570312 -15.75 5.28125 -15.75 Z M 9.71875 -15.75 C 9.425781 -15.75 9.175781 -15.851562 8.96875 -16.0625 C 8.757812 -16.269531 8.65625 -16.523438 8.65625 -16.828125 C 8.65625 -17.128906 8.757812 -17.382812 8.96875 -17.59375 C 9.1875 -17.800781 9.4375 -17.90625 9.71875 -17.90625 C 10.019531 -17.90625 10.273438 -17.800781 10.484375 -17.59375 C 10.691406 -17.382812 10.796875 -17.128906 10.796875 -16.828125 C 10.796875 -16.503906 10.691406 -16.242188 10.484375 -16.046875 C 10.273438 -15.847656 10.019531 -15.75 9.71875 -15.75 Z M 9.71875 -15.75 "/></g></g></g><g fill="#000000" fill-opacity="1"><g transform="translate(183.571013, 679.426959)"><g><path d="M 11.546875 -9.71875 C 12.765625 -9.457031 13.734375 -8.910156 14.453125 -8.078125 C 15.179688 -7.253906 15.546875 -6.21875 15.546875 -4.96875 C 15.546875 -3.925781 15.289062 -3.019531 14.78125 -2.25 C 14.28125 -1.476562 13.578125 -0.890625 12.671875 -0.484375 C 11.773438 -0.078125 10.757812 0.125 9.625 0.125 C 8.507812 0.125 7.578125 -0.0078125 6.828125 -0.28125 L 7.125 -1.78125 C 7.820312 -1.539062 8.628906 -1.421875 9.546875 -1.421875 C 10.816406 -1.421875 11.832031 -1.738281 12.59375 -2.375 C 13.363281 -3.007812 13.75 -3.894531 13.75 -5.03125 C 13.75 -6.144531 13.347656 -7.015625 12.546875 -7.640625 C 11.742188 -8.265625 10.6875 -8.578125 9.375 -8.578125 L 7.921875 -8.578125 L 7.921875 -10.09375 C 9.304688 -10.113281 10.390625 -10.457031 11.171875 -11.125 C 11.953125 -11.789062 12.34375 -12.691406 12.34375 -13.828125 C 12.34375 -14.828125 12 -15.625 11.3125 -16.21875 C 10.632812 -16.820312 9.695312 -17.125 8.5 -17.125 C 7.164062 -17.125 6.125 -16.734375 5.375 -15.953125 C 4.625 -15.179688 4.25 -14.0625 4.25 -12.59375 L 4.25 0 L 2.46875 0 L 2.46875 -12.453125 C 2.46875 -14.453125 3.019531 -15.988281 4.125 -17.0625 C 5.238281 -18.132812 6.695312 -18.671875 8.5 -18.671875 C 9.632812 -18.671875 10.617188 -18.460938 11.453125 -18.046875 C 12.296875 -17.628906 12.941406 -17.0625 13.390625 -16.34375 C 13.847656 -15.632812 14.078125 -14.820312 14.078125 -13.90625 C 14.078125 -12.945312 13.84375 -12.101562 13.375 -11.375 C 12.90625 -10.65625 12.296875 -10.101562 11.546875 -9.71875 Z M 11.546875 -9.71875 "/></g></g></g><g fill="#000000" fill-opacity="1"><g transform="translate(200.268365, 679.426959)"><g><path d="M 13.921875 -6.03125 L 2.921875 -6.03125 C 3.023438 -4.65625 3.550781 -3.546875 4.5 -2.703125 C 5.445312 -1.867188 6.644531 -1.453125 8.09375 -1.453125 C 8.914062 -1.453125 9.664062 -1.597656 10.34375 -1.890625 C 11.03125 -2.179688 11.625 -2.609375 12.125 -3.171875 L 13.125 -2.03125 C 12.539062 -1.320312 11.8125 -0.785156 10.9375 -0.421875 C 10.0625 -0.0546875 9.097656 0.125 8.046875 0.125 C 6.703125 0.125 5.507812 -0.160156 4.46875 -0.734375 C 3.425781 -1.304688 2.613281 -2.101562 2.03125 -3.125 C 1.445312 -4.144531 1.15625 -5.296875 1.15625 -6.578125 C 1.15625 -7.859375 1.429688 -9.003906 1.984375 -10.015625 C 2.546875 -11.035156 3.3125 -11.828125 4.28125 -12.390625 C 5.257812 -12.960938 6.359375 -13.25 7.578125 -13.25 C 8.796875 -13.25 9.882812 -12.960938 10.84375 -12.390625 C 11.8125 -11.828125 12.570312 -11.039062 13.125 -10.03125 C 13.675781 -9.03125 13.953125 -7.878906 13.953125 -6.578125 Z M 7.578125 -11.71875 C 6.304688 -11.71875 5.238281 -11.3125 4.375 -10.5 C 3.519531 -9.695312 3.035156 -8.644531 2.921875 -7.34375 L 12.25 -7.34375 C 12.132812 -8.644531 11.644531 -9.695312 10.78125 -10.5 C 9.925781 -11.3125 8.859375 -11.71875 7.578125 -11.71875 Z M 7.578125 -11.71875 "/></g></g></g><g fill="#000000" fill-opacity="1"><g transform="translate(215.365971, 679.426959)"><g/></g></g><g fill="#000000" fill-opacity="1"><g transform="translate(221.914932, 679.426959)"><g><path d="M 2.46875 -13.15625 L 4.25 -13.15625 L 4.25 0 L 2.46875 0 Z M 3.375 -16.03125 C 3.007812 -16.03125 2.703125 -16.15625 2.453125 -16.40625 C 2.203125 -16.65625 2.078125 -16.953125 2.078125 -17.296875 C 2.078125 -17.628906 2.203125 -17.921875 2.453125 -18.171875 C 2.703125 -18.421875 3.007812 -18.546875 3.375 -18.546875 C 3.738281 -18.546875 4.046875 -18.425781 4.296875 -18.1875 C 4.546875 -17.945312 4.671875 -17.660156 4.671875 -17.328125 C 4.671875 -16.960938 4.546875 -16.65625 4.296875 -16.40625 C 4.046875 -16.15625 3.738281 -16.03125 3.375 -16.03125 Z M 3.375 -16.03125 "/></g></g></g><g fill="#000000" fill-opacity="1"><g transform="translate(228.638861, 679.426959)"><g><path d="M 9.171875 -13.25 C 10.828125 -13.25 12.140625 -12.769531 13.109375 -11.8125 C 14.085938 -10.851562 14.578125 -9.457031 14.578125 -7.625 L 14.578125 0 L 12.796875 0 L 12.796875 -7.453125 C 12.796875 -8.816406 12.453125 -9.859375 11.765625 -10.578125 C 11.085938 -11.296875 10.113281 -11.65625 8.84375 -11.65625 C 7.425781 -11.65625 6.304688 -11.234375 5.484375 -10.390625 C 4.660156 -9.546875 4.25 -8.382812 4.25 -6.90625 L 4.25 0 L 2.46875 0 L 2.46875 -13.15625 L 4.171875 -13.15625 L 4.171875 -10.71875 C 4.660156 -11.519531 5.332031 -12.140625 6.1875 -12.578125 C 7.039062 -13.023438 8.035156 -13.25 9.171875 -13.25 Z M 9.171875 -13.25 "/></g></g></g><g fill="#000000" fill-opacity="1"><g transform="translate(245.561181, 679.426959)"><g/></g></g><g fill="#000000" fill-opacity="1"><g transform="translate(252.110142, 679.426959)"><g><path d="M 7.921875 0.125 C 6.617188 0.125 5.457031 -0.15625 4.4375 -0.71875 C 3.414062 -1.289062 2.613281 -2.085938 2.03125 -3.109375 C 1.445312 -4.140625 1.15625 -5.296875 1.15625 -6.578125 C 1.15625 -7.859375 1.445312 -9.003906 2.03125 -10.015625 C 2.613281 -11.035156 3.414062 -11.828125 4.4375 -12.390625 C 5.457031 -12.960938 6.617188 -13.25 7.921875 -13.25 C 9.054688 -13.25 10.066406 -13.023438 10.953125 -12.578125 C 11.847656 -12.140625 12.554688 -11.5 13.078125 -10.65625 L 11.75 -9.75 C 11.3125 -10.394531 10.757812 -10.878906 10.09375 -11.203125 C 9.425781 -11.535156 8.703125 -11.703125 7.921875 -11.703125 C 6.972656 -11.703125 6.117188 -11.488281 5.359375 -11.0625 C 4.597656 -10.632812 4.003906 -10.03125 3.578125 -9.25 C 3.160156 -8.46875 2.953125 -7.578125 2.953125 -6.578125 C 2.953125 -5.554688 3.160156 -4.65625 3.578125 -3.875 C 4.003906 -3.101562 4.597656 -2.503906 5.359375 -2.078125 C 6.117188 -1.660156 6.972656 -1.453125 7.921875 -1.453125 C 8.703125 -1.453125 9.425781 -1.609375 10.09375 -1.921875 C 10.757812 -2.242188 11.3125 -2.726562 11.75 -3.375 L 13.078125 -2.46875 C 12.554688 -1.625 11.84375 -0.976562 10.9375 -0.53125 C 10.039062 -0.09375 9.035156 0.125 7.921875 0.125 Z M 7.921875 0.125 "/></g></g></g><g fill="#000000" fill-opacity="1"><g transform="translate(266.182917, 679.426959)"><g><path d="M 18.875 -13.25 C 20.519531 -13.25 21.8125 -12.773438 22.75 -11.828125 C 23.695312 -10.878906 24.171875 -9.476562 24.171875 -7.625 L 24.171875 0 L 22.40625 0 L 22.40625 -7.453125 C 22.40625 -8.816406 22.070312 -9.859375 21.40625 -10.578125 C 20.75 -11.296875 19.820312 -11.65625 18.625 -11.65625 C 17.257812 -11.65625 16.179688 -11.234375 15.390625 -10.390625 C 14.609375 -9.546875 14.21875 -8.382812 14.21875 -6.90625 L 14.21875 0 L 12.453125 0 L 12.453125 -7.453125 C 12.453125 -8.816406 12.117188 -9.859375 11.453125 -10.578125 C 10.796875 -11.296875 9.863281 -11.65625 8.65625 -11.65625 C 7.300781 -11.65625 6.226562 -11.234375 5.4375 -10.390625 C 4.644531 -9.546875 4.25 -8.382812 4.25 -6.90625 L 4.25 0 L 2.46875 0 L 2.46875 -13.15625 L 4.171875 -13.15625 L 4.171875 -10.75 C 4.640625 -11.550781 5.289062 -12.164062 6.125 -12.59375 C 6.957031 -13.03125 7.914062 -13.25 9 -13.25 C 10.101562 -13.25 11.054688 -13.015625 11.859375 -12.546875 C 12.671875 -12.078125 13.273438 -11.382812 13.671875 -10.46875 C 14.160156 -11.34375 14.859375 -12.023438 15.765625 -12.515625 C 16.671875 -13.003906 17.707031 -13.25 18.875 -13.25 Z M 18.875 -13.25 "/></g></g></g><g fill="#000000" fill-opacity="1"><g transform="translate(371.579497, 679.426959)"><g><path d="M 13.828125 0 L 8.171875 -7.703125 L 2.546875 0 L 0.421875 0 L 7.078125 -9 L 0.84375 -17.5 L 2.96875 -17.5 L 8.25 -10.34375 L 13.5 -17.5 L 15.5 -17.5 L 9.296875 -9.046875 L 15.96875 0 Z M 13.828125 0 "/></g></g></g><g fill="#000000" fill-opacity="1"><g transform="translate(387.976899, 679.426959)"><g><path d="M 7.671875 0.15625 C 6.367188 0.15625 5.125 -0.0507812 3.9375 -0.46875 C 2.75 -0.882812 1.828125 -1.4375 1.171875 -2.125 L 1.90625 -3.546875 C 2.53125 -2.910156 3.367188 -2.394531 4.421875 -2 C 5.472656 -1.613281 6.554688 -1.421875 7.671875 -1.421875 C 9.242188 -1.421875 10.421875 -1.707031 11.203125 -2.28125 C 11.984375 -2.863281 12.375 -3.613281 12.375 -4.53125 C 12.375 -5.226562 12.160156 -5.785156 11.734375 -6.203125 C 11.304688 -6.617188 10.785156 -6.9375 10.171875 -7.15625 C 9.554688 -7.382812 8.695312 -7.632812 7.59375 -7.90625 C 6.28125 -8.238281 5.234375 -8.554688 4.453125 -8.859375 C 3.671875 -9.171875 3 -9.640625 2.4375 -10.265625 C 1.875 -10.898438 1.59375 -11.757812 1.59375 -12.84375 C 1.59375 -13.726562 1.828125 -14.53125 2.296875 -15.25 C 2.765625 -15.976562 3.484375 -16.5625 4.453125 -17 C 5.421875 -17.4375 6.617188 -17.65625 8.046875 -17.65625 C 9.046875 -17.65625 10.023438 -17.515625 10.984375 -17.234375 C 11.941406 -16.960938 12.769531 -16.582031 13.46875 -16.09375 L 12.84375 -14.625 C 12.113281 -15.101562 11.332031 -15.460938 10.5 -15.703125 C 9.664062 -15.953125 8.847656 -16.078125 8.046875 -16.078125 C 6.515625 -16.078125 5.359375 -15.78125 4.578125 -15.1875 C 3.804688 -14.59375 3.421875 -13.832031 3.421875 -12.90625 C 3.421875 -12.195312 3.632812 -11.628906 4.0625 -11.203125 C 4.488281 -10.785156 5.019531 -10.460938 5.65625 -10.234375 C 6.300781 -10.015625 7.164062 -9.769531 8.25 -9.5 C 9.53125 -9.1875 10.566406 -8.875 11.359375 -8.5625 C 12.148438 -8.25 12.820312 -7.78125 13.375 -7.15625 C 13.925781 -6.53125 14.203125 -5.6875 14.203125 -4.625 C 14.203125 -3.738281 13.960938 -2.929688 13.484375 -2.203125 C 13.015625 -1.484375 12.285156 -0.910156 11.296875 -0.484375 C 10.316406 -0.0546875 9.109375 0.15625 7.671875 0.15625 Z M 7.671875 0.15625 "/></g></g></g><g fill="#000000" fill-opacity="1"><g transform="translate(533.527665, 679.426959)"><g><path d="M 7.671875 0.15625 C 6.367188 0.15625 5.125 -0.0507812 3.9375 -0.46875 C 2.75 -0.882812 1.828125 -1.4375 1.171875 -2.125 L 1.90625 -3.546875 C 2.53125 -2.910156 3.367188 -2.394531 4.421875 -2 C 5.472656 -1.613281 6.554688 -1.421875 7.671875 -1.421875 C 9.242188 -1.421875 10.421875 -1.707031 11.203125 -2.28125 C 11.984375 -2.863281 12.375 -3.613281 12.375 -4.53125 C 12.375 -5.226562 12.160156 -5.785156 11.734375 -6.203125 C 11.304688 -6.617188 10.785156 -6.9375 10.171875 -7.15625 C 9.554688 -7.382812 8.695312 -7.632812 7.59375 -7.90625 C 6.28125 -8.238281 5.234375 -8.554688 4.453125 -8.859375 C 3.671875 -9.171875 3 -9.640625 2.4375 -10.265625 C 1.875 -10.898438 1.59375 -11.757812 1.59375 -12.84375 C 1.59375 -13.726562 1.828125 -14.53125 2.296875 -15.25 C 2.765625 -15.976562 3.484375 -16.5625 4.453125 -17 C 5.421875 -17.4375 6.617188 -17.65625 8.046875 -17.65625 C 9.046875 -17.65625 10.023438 -17.515625 10.984375 -17.234375 C 11.941406 -16.960938 12.769531 -16.582031 13.46875 -16.09375 L 12.84375 -14.625 C 12.113281 -15.101562 11.332031 -15.460938 10.5 -15.703125 C 9.664062 -15.953125 8.847656 -16.078125 8.046875 -16.078125 C 6.515625 -16.078125 5.359375 -15.78125 4.578125 -15.1875 C 3.804688 -14.59375 3.421875 -13.832031 3.421875 -12.90625 C 3.421875 -12.195312 3.632812 -11.628906 4.0625 -11.203125 C 4.488281 -10.785156 5.019531 -10.460938 5.65625 -10.234375 C 6.300781 -10.015625 7.164062 -9.769531 8.25 -9.5 C 9.53125 -9.1875 10.566406 -8.875 11.359375 -8.5625 C 12.148438 -8.25 12.820312 -7.78125 13.375 -7.15625 C 13.925781 -6.53125 14.203125 -5.6875 14.203125 -4.625 C 14.203125 -3.738281 13.960938 -2.929688 13.484375 -2.203125 C 13.015625 -1.484375 12.285156 -0.910156 11.296875 -0.484375 C 10.316406 -0.0546875 9.109375 0.15625 7.671875 0.15625 Z M 7.671875 0.15625 "/></g></g></g><g fill="#000000" fill-opacity="1"><g transform="translate(683.018754, 679.426959)"><g><path d="M 21.03125 -17.5 L 21.03125 0 L 19.25 0 L 19.25 -14 L 12.375 -2.21875 L 11.5 -2.21875 L 4.625 -13.921875 L 4.625 0 L 2.84375 0 L 2.84375 -17.5 L 4.375 -17.5 L 11.96875 -4.53125 L 19.5 -17.5 Z M 21.03125 -17.5 "/></g></g></g><g fill="#000000" fill-opacity="1"><g transform="translate(841.345803, 679.426959)"><g><path d="M 2.84375 -17.5 L 4.703125 -17.5 L 4.703125 -1.59375 L 14.5 -1.59375 L 14.5 0 L 2.84375 0 Z M 2.84375 -17.5 "/></g></g></g><g fill="#000000" fill-opacity="1"><g transform="translate(986.887673, 679.426959)"><g><path d="M 13.828125 0 L 8.171875 -7.703125 L 2.546875 0 L 0.421875 0 L 7.078125 -9 L 0.84375 -17.5 L 2.96875 -17.5 L 8.25 -10.34375 L 13.5 -17.5 L 15.5 -17.5 L 9.296875 -9.046875 L 15.96875 0 Z M 13.828125 0 "/></g></g></g><g fill="#000000" fill-opacity="1"><g transform="translate(1003.285075, 679.426959)"><g><path d="M 2.84375 -17.5 L 4.703125 -17.5 L 4.703125 -1.59375 L 14.5 -1.59375 L 14.5 0 L 2.84375 0 Z M 2.84375 -17.5 "/></g></g></g><g fill="#000000" fill-opacity="1"><g transform="translate(206.674229, 757.528856)"><g><path d="M 13.828125 -4.671875 L 4.078125 -4.671875 L 1.96875 0 L 0.046875 0 L 8.046875 -17.5 L 9.875 -17.5 L 17.875 0 L 15.921875 0 Z M 13.15625 -6.171875 L 8.953125 -15.578125 L 4.75 -6.171875 Z M 13.15625 -6.171875 "/></g></g></g><g fill="#000000" fill-opacity="1"><g transform="translate(374.696684, 757.528856)"><g><path d="M 16.171875 -4.59375 L 12.671875 -4.59375 L 12.671875 0 L 10.875 0 L 10.875 -4.59375 L 1 -4.59375 L 1 -5.90625 L 10.28125 -17.5 L 12.28125 -17.5 L 3.328125 -6.203125 L 10.921875 -6.203125 L 10.921875 -10.25 L 12.671875 -10.25 L 12.671875 -6.203125 L 16.171875 -6.203125 Z M 16.171875 -4.59375 "/></g></g></g><g fill="#000000" fill-opacity="1"><g transform="translate(391.219067, 757.528856)"><g><path d="M 6.15625 -17.5 L 6.15625 0 L 4.34375 0 L 4.34375 -15.90625 L 0.21875 -15.90625 L 0.21875 -17.5 Z M 6.15625 -17.5 "/></g></g></g><g fill="#000000" fill-opacity="1"><g transform="translate(525.851885, 757.528856)"><g><path d="M 16.171875 -4.59375 L 12.671875 -4.59375 L 12.671875 0 L 10.875 0 L 10.875 -4.59375 L 1 -4.59375 L 1 -5.90625 L 10.28125 -17.5 L 12.28125 -17.5 L 3.328125 -6.203125 L 10.921875 -6.203125 L 10.921875 -10.25 L 12.671875 -10.25 L 12.671875 -6.203125 L 16.171875 -6.203125 Z M 16.171875 -4.59375 "/></g></g></g><g fill="#000000" fill-opacity="1"><g transform="translate(542.374268, 757.528856)"><g><path d="M 13.25 -1.59375 L 13.25 0 L 0.96875 0 L 0.96875 -1.28125 L 8.25 -8.40625 C 9.164062 -9.300781 9.785156 -10.078125 10.109375 -10.734375 C 10.429688 -11.390625 10.59375 -12.050781 10.59375 -12.71875 C 10.59375 -13.757812 10.238281 -14.566406 9.53125 -15.140625 C 8.820312 -15.710938 7.8125 -16 6.5 -16 C 4.445312 -16 2.851562 -15.347656 1.71875 -14.046875 L 0.453125 -15.15625 C 1.128906 -15.945312 2 -16.5625 3.0625 -17 C 4.125 -17.4375 5.320312 -17.65625 6.65625 -17.65625 C 8.4375 -17.65625 9.847656 -17.234375 10.890625 -16.390625 C 11.929688 -15.546875 12.453125 -14.390625 12.453125 -12.921875 C 12.453125 -12.023438 12.25 -11.160156 11.84375 -10.328125 C 11.445312 -9.492188 10.691406 -8.535156 9.578125 -7.453125 L 3.625 -1.59375 Z M 13.25 -1.59375 "/></g></g></g><g fill="#000000" fill-opacity="1"><g transform="translate(679.655473, 757.528856)"><g><path d="M 16.171875 -4.59375 L 12.671875 -4.59375 L 12.671875 0 L 10.875 0 L 10.875 -4.59375 L 1 -4.59375 L 1 -5.90625 L 10.28125 -17.5 L 12.28125 -17.5 L 3.328125 -6.203125 L 10.921875 -6.203125 L 10.921875 -10.25 L 12.671875 -10.25 L 12.671875 -6.203125 L 16.171875 -6.203125 Z M 16.171875 -4.59375 "/></g></g></g><g fill="#000000" fill-opacity="1"><g transform="translate(696.177856, 757.528856)"><g><path d="M 7.25 -10 C 9.082031 -9.894531 10.476562 -9.394531 11.4375 -8.5 C 12.394531 -7.613281 12.875 -6.457031 12.875 -5.03125 C 12.875 -4.03125 12.628906 -3.140625 12.140625 -2.359375 C 11.660156 -1.585938 10.945312 -0.972656 10 -0.515625 C 9.050781 -0.0664062 7.894531 0.15625 6.53125 0.15625 C 5.257812 0.15625 4.0625 -0.046875 2.9375 -0.453125 C 1.8125 -0.867188 0.90625 -1.414062 0.21875 -2.09375 L 1.09375 -3.53125 C 1.675781 -2.925781 2.453125 -2.4375 3.421875 -2.0625 C 4.390625 -1.6875 5.425781 -1.5 6.53125 -1.5 C 7.957031 -1.5 9.0625 -1.8125 9.84375 -2.4375 C 10.632812 -3.0625 11.03125 -3.925781 11.03125 -5.03125 C 11.03125 -6.113281 10.632812 -6.960938 9.84375 -7.578125 C 9.0625 -8.191406 7.878906 -8.5 6.296875 -8.5 L 5.046875 -8.5 L 5.046875 -9.828125 L 9.90625 -15.90625 L 0.953125 -15.90625 L 0.953125 -17.5 L 12.203125 -17.5 L 12.203125 -16.21875 Z M 7.25 -10 "/></g></g></g><g fill="#000000" fill-opacity="1"><g transform="translate(833.400491, 757.528856)"><g><path d="M 16.171875 -4.59375 L 12.671875 -4.59375 L 12.671875 0 L 10.875 0 L 10.875 -4.59375 L 1 -4.59375 L 1 -5.90625 L 10.28125 -17.5 L 12.28125 -17.5 L 3.328125 -6.203125 L 10.921875 -6.203125 L 10.921875 -10.25 L 12.671875 -10.25 L 12.671875 -6.203125 L 16.171875 -6.203125 Z M 16.171875 -4.59375 "/></g></g></g><g fill="#000000" fill-opacity="1"><g transform="translate(849.922874, 757.528856)"><g><path d="M 7.25 -10 C 9.082031 -9.894531 10.476562 -9.394531 11.4375 -8.5 C 12.394531 -7.613281 12.875 -6.457031 12.875 -5.03125 C 12.875 -4.03125 12.628906 -3.140625 12.140625 -2.359375 C 11.660156 -1.585938 10.945312 -0.972656 10 -0.515625 C 9.050781 -0.0664062 7.894531 0.15625 6.53125 0.15625 C 5.257812 0.15625 4.0625 -0.046875 2.9375 -0.453125 C 1.8125 -0.867188 0.90625 -1.414062 0.21875 -2.09375 L 1.09375 -3.53125 C 1.675781 -2.925781 2.453125 -2.4375 3.421875 -2.0625 C 4.390625 -1.6875 5.425781 -1.5 6.53125 -1.5 C 7.957031 -1.5 9.0625 -1.8125 9.84375 -2.4375 C 10.632812 -3.0625 11.03125 -3.925781 11.03125 -5.03125 C 11.03125 -6.113281 10.632812 -6.960938 9.84375 -7.578125 C 9.0625 -8.191406 7.878906 -8.5 6.296875 -8.5 L 5.046875 -8.5 L 5.046875 -9.828125 L 9.90625 -15.90625 L 0.953125 -15.90625 L 0.953125 -17.5 L 12.203125 -17.5 L 12.203125 -16.21875 Z M 7.25 -10 "/></g></g></g><g fill="#000000" fill-opacity="1"><g transform="translate(987.145485, 757.528856)"><g><path d="M 16.171875 -4.59375 L 12.671875 -4.59375 L 12.671875 0 L 10.875 0 L 10.875 -4.59375 L 1 -4.59375 L 1 -5.90625 L 10.28125 -17.5 L 12.28125 -17.5 L 3.328125 -6.203125 L 10.921875 -6.203125 L 10.921875 -10.25 L 12.671875 -10.25 L 12.671875 -6.203125 L 16.171875 -6.203125 Z M 16.171875 -4.59375 "/></g></g></g><g fill="#000000" fill-opacity="1"><g transform="translate(1003.667868, 757.528856)"><g><path d="M 7.25 -10 C 9.082031 -9.894531 10.476562 -9.394531 11.4375 -8.5 C 12.394531 -7.613281 12.875 -6.457031 12.875 -5.03125 C 12.875 -4.03125 12.628906 -3.140625 12.140625 -2.359375 C 11.660156 -1.585938 10.945312 -0.972656 10 -0.515625 C 9.050781 -0.0664062 7.894531 0.15625 6.53125 0.15625 C 5.257812 0.15625 4.0625 -0.046875 2.9375 -0.453125 C 1.8125 -0.867188 0.90625 -1.414062 0.21875 -2.09375 L 1.09375 -3.53125 C 1.675781 -2.925781 2.453125 -2.4375 3.421875 -2.0625 C 4.390625 -1.6875 5.425781 -1.5 6.53125 -1.5 C 7.957031 -1.5 9.0625 -1.8125 9.84375 -2.4375 C 10.632812 -3.0625 11.03125 -3.925781 11.03125 -5.03125 C 11.03125 -6.113281 10.632812 -6.960938 9.84375 -7.578125 C 9.0625 -8.191406 7.878906 -8.5 6.296875 -8.5 L 5.046875 -8.5 L 5.046875 -9.828125 L 9.90625 -15.90625 L 0.953125 -15.90625 L 0.953125 -17.5 L 12.203125 -17.5 L 12.203125 -16.21875 Z M 7.25 -10 "/></g></g></g><g fill="#000000" fill-opacity="1"><g transform="translate(206.205479, 854.459255)"><g><path d="M 13.875 -9.03125 C 15.019531 -8.78125 15.90625 -8.28125 16.53125 -7.53125 C 17.15625 -6.789062 17.46875 -5.835938 17.46875 -4.671875 C 17.46875 -3.171875 16.914062 -2.015625 15.8125 -1.203125 C 14.707031 -0.398438 13.070312 0 10.90625 0 L 2.84375 0 L 2.84375 -17.5 L 10.40625 -17.5 C 12.351562 -17.5 13.863281 -17.109375 14.9375 -16.328125 C 16.007812 -15.546875 16.546875 -14.4375 16.546875 -13 C 16.546875 -12.03125 16.304688 -11.207031 15.828125 -10.53125 C 15.359375 -9.863281 14.707031 -9.363281 13.875 -9.03125 Z M 4.703125 -15.96875 L 4.703125 -9.625 L 10.28125 -9.625 C 11.695312 -9.625 12.785156 -9.894531 13.546875 -10.4375 C 14.316406 -10.976562 14.703125 -11.765625 14.703125 -12.796875 C 14.703125 -13.828125 14.316406 -14.613281 13.546875 -15.15625 C 12.785156 -15.695312 11.695312 -15.96875 10.28125 -15.96875 Z M 10.875 -1.53125 C 12.4375 -1.53125 13.617188 -1.796875 14.421875 -2.328125 C 15.222656 -2.859375 15.625 -3.691406 15.625 -4.828125 C 15.625 -7.003906 14.039062 -8.09375 10.875 -8.09375 L 4.703125 -8.09375 L 4.703125 -1.53125 Z M 10.875 -1.53125 "/></g></g></g><g fill="#000000" fill-opacity="1"><g transform="translate(375.880277, 854.459255)"><g><path d="M 5.90625 -10.328125 C 8.4375 -10.328125 10.28125 -9.867188 11.4375 -8.953125 C 12.59375 -8.046875 13.171875 -6.78125 13.171875 -5.15625 C 13.171875 -4.132812 12.929688 -3.222656 12.453125 -2.421875 C 11.984375 -1.617188 11.273438 -0.988281 10.328125 -0.53125 C 9.378906 -0.0703125 8.210938 0.15625 6.828125 0.15625 C 5.578125 0.15625 4.390625 -0.046875 3.265625 -0.453125 C 2.140625 -0.867188 1.234375 -1.414062 0.546875 -2.09375 L 1.421875 -3.53125 C 2.003906 -2.925781 2.769531 -2.4375 3.71875 -2.0625 C 4.675781 -1.6875 5.703125 -1.5 6.796875 -1.5 C 8.242188 -1.5 9.363281 -1.820312 10.15625 -2.46875 C 10.945312 -3.125 11.34375 -3.992188 11.34375 -5.078125 C 11.34375 -6.273438 10.894531 -7.179688 10 -7.796875 C 9.113281 -8.410156 7.613281 -8.71875 5.5 -8.71875 L 1.78125 -8.71875 L 2.671875 -17.5 L 12.25 -17.5 L 12.25 -15.90625 L 4.25 -15.90625 L 3.65625 -10.328125 Z M 5.90625 -10.328125 "/></g></g></g><g fill="#000000" fill-opacity="1"><g transform="translate(390.028035, 854.459255)"><g><path d="M 6.15625 -17.5 L 6.15625 0 L 4.34375 0 L 4.34375 -15.90625 L 0.21875 -15.90625 L 0.21875 -17.5 Z M 6.15625 -17.5 "/></g></g></g><g fill="#000000" fill-opacity="1"><g transform="translate(527.094072, 854.459255)"><g><path d="M 5.90625 -10.328125 C 8.4375 -10.328125 10.28125 -9.867188 11.4375 -8.953125 C 12.59375 -8.046875 13.171875 -6.78125 13.171875 -5.15625 C 13.171875 -4.132812 12.929688 -3.222656 12.453125 -2.421875 C 11.984375 -1.617188 11.273438 -0.988281 10.328125 -0.53125 C 9.378906 -0.0703125 8.210938 0.15625 6.828125 0.15625 C 5.578125 0.15625 4.390625 -0.046875 3.265625 -0.453125 C 2.140625 -0.867188 1.234375 -1.414062 0.546875 -2.09375 L 1.421875 -3.53125 C 2.003906 -2.925781 2.769531 -2.4375 3.71875 -2.0625 C 4.675781 -1.6875 5.703125 -1.5 6.796875 -1.5 C 8.242188 -1.5 9.363281 -1.820312 10.15625 -2.46875 C 10.945312 -3.125 11.34375 -3.992188 11.34375 -5.078125 C 11.34375 -6.273438 10.894531 -7.179688 10 -7.796875 C 9.113281 -8.410156 7.613281 -8.71875 5.5 -8.71875 L 1.78125 -8.71875 L 2.671875 -17.5 L 12.25 -17.5 L 12.25 -15.90625 L 4.25 -15.90625 L 3.65625 -10.328125 Z M 5.90625 -10.328125 "/></g></g></g><g fill="#000000" fill-opacity="1"><g transform="translate(541.24183, 854.459255)"><g><path d="M 7.25 -10 C 9.082031 -9.894531 10.476562 -9.394531 11.4375 -8.5 C 12.394531 -7.613281 12.875 -6.457031 12.875 -5.03125 C 12.875 -4.03125 12.628906 -3.140625 12.140625 -2.359375 C 11.660156 -1.585938 10.945312 -0.972656 10 -0.515625 C 9.050781 -0.0664062 7.894531 0.15625 6.53125 0.15625 C 5.257812 0.15625 4.0625 -0.046875 2.9375 -0.453125 C 1.8125 -0.867188 0.90625 -1.414062 0.21875 -2.09375 L 1.09375 -3.53125 C 1.675781 -2.925781 2.453125 -2.4375 3.421875 -2.0625 C 4.390625 -1.6875 5.425781 -1.5 6.53125 -1.5 C 7.957031 -1.5 9.0625 -1.8125 9.84375 -2.4375 C 10.632812 -3.0625 11.03125 -3.925781 11.03125 -5.03125 C 11.03125 -6.113281 10.632812 -6.960938 9.84375 -7.578125 C 9.0625 -8.191406 7.878906 -8.5 6.296875 -8.5 L 5.046875 -8.5 L 5.046875 -9.828125 L 9.90625 -15.90625 L 0.953125 -15.90625 L 0.953125 -17.5 L 12.203125 -17.5 L 12.203125 -16.21875 Z M 7.25 -10 "/></g></g></g><g fill="#000000" fill-opacity="1"><g transform="translate(680.815629, 854.459255)"><g><path d="M 5.90625 -10.328125 C 8.4375 -10.328125 10.28125 -9.867188 11.4375 -8.953125 C 12.59375 -8.046875 13.171875 -6.78125 13.171875 -5.15625 C 13.171875 -4.132812 12.929688 -3.222656 12.453125 -2.421875 C 11.984375 -1.617188 11.273438 -0.988281 10.328125 -0.53125 C 9.378906 -0.0703125 8.210938 0.15625 6.828125 0.15625 C 5.578125 0.15625 4.390625 -0.046875 3.265625 -0.453125 C 2.140625 -0.867188 1.234375 -1.414062 0.546875 -2.09375 L 1.421875 -3.53125 C 2.003906 -2.925781 2.769531 -2.4375 3.71875 -2.0625 C 4.675781 -1.6875 5.703125 -1.5 6.796875 -1.5 C 8.242188 -1.5 9.363281 -1.820312 10.15625 -2.46875 C 10.945312 -3.125 11.34375 -3.992188 11.34375 -5.078125 C 11.34375 -6.273438 10.894531 -7.179688 10 -7.796875 C 9.113281 -8.410156 7.613281 -8.71875 5.5 -8.71875 L 1.78125 -8.71875 L 2.671875 -17.5 L 12.25 -17.5 L 12.25 -15.90625 L 4.25 -15.90625 L 3.65625 -10.328125 Z M 5.90625 -10.328125 "/></g></g></g><g fill="#000000" fill-opacity="1"><g transform="translate(694.963386, 854.459255)"><g><path d="M 5.90625 -10.328125 C 8.4375 -10.328125 10.28125 -9.867188 11.4375 -8.953125 C 12.59375 -8.046875 13.171875 -6.78125 13.171875 -5.15625 C 13.171875 -4.132812 12.929688 -3.222656 12.453125 -2.421875 C 11.984375 -1.617188 11.273438 -0.988281 10.328125 -0.53125 C 9.378906 -0.0703125 8.210938 0.15625 6.828125 0.15625 C 5.578125 0.15625 4.390625 -0.046875 3.265625 -0.453125 C 2.140625 -0.867188 1.234375 -1.414062 0.546875 -2.09375 L 1.421875 -3.53125 C 2.003906 -2.925781 2.769531 -2.4375 3.71875 -2.0625 C 4.675781 -1.6875 5.703125 -1.5 6.796875 -1.5 C 8.242188 -1.5 9.363281 -1.820312 10.15625 -2.46875 C 10.945312 -3.125 11.34375 -3.992188 11.34375 -5.078125 C 11.34375 -6.273438 10.894531 -7.179688 10 -7.796875 C 9.113281 -8.410156 7.613281 -8.71875 5.5 -8.71875 L 1.78125 -8.71875 L 2.671875 -17.5 L 12.25 -17.5 L 12.25 -15.90625 L 4.25 -15.90625 L 3.65625 -10.328125 Z M 5.90625 -10.328125 "/></g></g></g><g fill="#000000" fill-opacity="1"><g transform="translate(834.267678, 854.459255)"><g><path d="M 5.90625 -10.328125 C 8.4375 -10.328125 10.28125 -9.867188 11.4375 -8.953125 C 12.59375 -8.046875 13.171875 -6.78125 13.171875 -5.15625 C 13.171875 -4.132812 12.929688 -3.222656 12.453125 -2.421875 C 11.984375 -1.617188 11.273438 -0.988281 10.328125 -0.53125 C 9.378906 -0.0703125 8.210938 0.15625 6.828125 0.15625 C 5.578125 0.15625 4.390625 -0.046875 3.265625 -0.453125 C 2.140625 -0.867188 1.234375 -1.414062 0.546875 -2.09375 L 1.421875 -3.53125 C 2.003906 -2.925781 2.769531 -2.4375 3.71875 -2.0625 C 4.675781 -1.6875 5.703125 -1.5 6.796875 -1.5 C 8.242188 -1.5 9.363281 -1.820312 10.15625 -2.46875 C 10.945312 -3.125 11.34375 -3.992188 11.34375 -5.078125 C 11.34375 -6.273438 10.894531 -7.179688 10 -7.796875 C 9.113281 -8.410156 7.613281 -8.71875 5.5 -8.71875 L 1.78125 -8.71875 L 2.671875 -17.5 L 12.25 -17.5 L 12.25 -15.90625 L 4.25 -15.90625 L 3.65625 -10.328125 Z M 5.90625 -10.328125 "/></g></g></g><g fill="#000000" fill-opacity="1"><g transform="translate(848.415436, 854.459255)"><g><path d="M 13.65625 -17.5 L 13.65625 -16.21875 L 6.328125 0 L 4.375 0 L 11.578125 -15.90625 L 2.578125 -15.90625 L 2.578125 -12.625 L 0.796875 -12.625 L 0.796875 -17.5 Z M 13.65625 -17.5 "/></g></g></g><g fill="#000000" fill-opacity="1"><g transform="translate(987.766579, 854.459255)"><g><path d="M 5.90625 -10.328125 C 8.4375 -10.328125 10.28125 -9.867188 11.4375 -8.953125 C 12.59375 -8.046875 13.171875 -6.78125 13.171875 -5.15625 C 13.171875 -4.132812 12.929688 -3.222656 12.453125 -2.421875 C 11.984375 -1.617188 11.273438 -0.988281 10.328125 -0.53125 C 9.378906 -0.0703125 8.210938 0.15625 6.828125 0.15625 C 5.578125 0.15625 4.390625 -0.046875 3.265625 -0.453125 C 2.140625 -0.867188 1.234375 -1.414062 0.546875 -2.09375 L 1.421875 -3.53125 C 2.003906 -2.925781 2.769531 -2.4375 3.71875 -2.0625 C 4.675781 -1.6875 5.703125 -1.5 6.796875 -1.5 C 8.242188 -1.5 9.363281 -1.820312 10.15625 -2.46875 C 10.945312 -3.125 11.34375 -3.992188 11.34375 -5.078125 C 11.34375 -6.273438 10.894531 -7.179688 10 -7.796875 C 9.113281 -8.410156 7.613281 -8.71875 5.5 -8.71875 L 1.78125 -8.71875 L 2.671875 -17.5 L 12.25 -17.5 L 12.25 -15.90625 L 4.25 -15.90625 L 3.65625 -10.328125 Z M 5.90625 -10.328125 "/></g></g></g><g fill="#000000" fill-opacity="1"><g transform="translate(1001.914336, 854.459255)"><g><path d="M 6.75 -17.65625 C 9.0625 -17.65625 10.832031 -16.890625 12.0625 -15.359375 C 13.300781 -13.835938 13.921875 -11.6875 13.921875 -8.90625 C 13.921875 -6.945312 13.585938 -5.289062 12.921875 -3.9375 C 12.253906 -2.59375 11.320312 -1.570312 10.125 -0.875 C 8.925781 -0.1875 7.523438 0.15625 5.921875 0.15625 C 4.191406 0.15625 2.8125 -0.160156 1.78125 -0.796875 L 2.5 -2.25 C 3.332031 -1.695312 4.46875 -1.421875 5.90625 -1.421875 C 7.832031 -1.421875 9.34375 -2.03125 10.4375 -3.25 C 11.539062 -4.476562 12.09375 -6.257812 12.09375 -8.59375 C 12.09375 -9.03125 12.070312 -9.507812 12.03125 -10.03125 C 11.59375 -9.070312 10.898438 -8.332031 9.953125 -7.8125 C 9.003906 -7.289062 7.910156 -7.03125 6.671875 -7.03125 C 5.523438 -7.03125 4.503906 -7.242188 3.609375 -7.671875 C 2.722656 -8.109375 2.03125 -8.722656 1.53125 -9.515625 C 1.03125 -10.304688 0.78125 -11.226562 0.78125 -12.28125 C 0.78125 -13.34375 1.035156 -14.28125 1.546875 -15.09375 C 2.066406 -15.914062 2.78125 -16.546875 3.6875 -16.984375 C 4.59375 -17.429688 5.613281 -17.65625 6.75 -17.65625 Z M 6.953125 -8.546875 C 7.835938 -8.546875 8.613281 -8.710938 9.28125 -9.046875 C 9.957031 -9.378906 10.488281 -9.835938 10.875 -10.421875 C 11.257812 -11.003906 11.453125 -11.65625 11.453125 -12.375 C 11.453125 -13.039062 11.269531 -13.65625 10.90625 -14.21875 C 10.550781 -14.789062 10.023438 -15.25 9.328125 -15.59375 C 8.628906 -15.945312 7.796875 -16.125 6.828125 -16.125 C 5.554688 -16.125 4.523438 -15.773438 3.734375 -15.078125 C 2.941406 -14.390625 2.546875 -13.472656 2.546875 -12.328125 C 2.546875 -11.171875 2.941406 -10.25 3.734375 -9.5625 C 4.523438 -8.882812 5.597656 -8.546875 6.953125 -8.546875 Z M 6.953125 -8.546875 "/></g></g></g><g fill="#000000" fill-opacity="1"><g transform="translate(206.650792, 954.927422)"><g><path d="M 10.453125 0.15625 C 8.710938 0.15625 7.144531 -0.226562 5.75 -1 C 4.363281 -1.769531 3.273438 -2.832031 2.484375 -4.1875 C 1.691406 -5.539062 1.296875 -7.0625 1.296875 -8.75 C 1.296875 -10.4375 1.691406 -11.957031 2.484375 -13.3125 C 3.273438 -14.664062 4.367188 -15.726562 5.765625 -16.5 C 7.171875 -17.269531 8.738281 -17.65625 10.46875 -17.65625 C 11.769531 -17.65625 12.96875 -17.4375 14.0625 -17 C 15.164062 -16.5625 16.101562 -15.925781 16.875 -15.09375 L 15.703125 -13.921875 C 14.335938 -15.304688 12.613281 -16 10.53125 -16 C 9.144531 -16 7.882812 -15.679688 6.75 -15.046875 C 5.613281 -14.410156 4.722656 -13.539062 4.078125 -12.4375 C 3.441406 -11.34375 3.125 -10.113281 3.125 -8.75 C 3.125 -7.382812 3.441406 -6.148438 4.078125 -5.046875 C 4.722656 -3.953125 5.613281 -3.085938 6.75 -2.453125 C 7.882812 -1.816406 9.144531 -1.5 10.53125 -1.5 C 12.625 -1.5 14.347656 -2.195312 15.703125 -3.59375 L 16.875 -2.421875 C 16.101562 -1.585938 15.164062 -0.945312 14.0625 -0.5 C 12.957031 -0.0625 11.753906 0.15625 10.453125 0.15625 Z M 10.453125 0.15625 "/></g></g></g><g fill="#000000" fill-opacity="1"><g transform="translate(373.302153, 954.927422)"><g><path d="M 5.90625 -10.328125 C 8.4375 -10.328125 10.28125 -9.867188 11.4375 -8.953125 C 12.59375 -8.046875 13.171875 -6.78125 13.171875 -5.15625 C 13.171875 -4.132812 12.929688 -3.222656 12.453125 -2.421875 C 11.984375 -1.617188 11.273438 -0.988281 10.328125 -0.53125 C 9.378906 -0.0703125 8.210938 0.15625 6.828125 0.15625 C 5.578125 0.15625 4.390625 -0.046875 3.265625 -0.453125 C 2.140625 -0.867188 1.234375 -1.414062 0.546875 -2.09375 L 1.421875 -3.53125 C 2.003906 -2.925781 2.769531 -2.4375 3.71875 -2.0625 C 4.675781 -1.6875 5.703125 -1.5 6.796875 -1.5 C 8.242188 -1.5 9.363281 -1.820312 10.15625 -2.46875 C 10.945312 -3.125 11.34375 -3.992188 11.34375 -5.078125 C 11.34375 -6.273438 10.894531 -7.179688 10 -7.796875 C 9.113281 -8.410156 7.613281 -8.71875 5.5 -8.71875 L 1.78125 -8.71875 L 2.671875 -17.5 L 12.25 -17.5 L 12.25 -15.90625 L 4.25 -15.90625 L 3.65625 -10.328125 Z M 5.90625 -10.328125 "/></g></g></g><g fill="#000000" fill-opacity="1"><g transform="translate(387.44991, 954.927422)"><g><path d="M 13.25 -1.59375 L 13.25 0 L 0.96875 0 L 0.96875 -1.28125 L 8.25 -8.40625 C 9.164062 -9.300781 9.785156 -10.078125 10.109375 -10.734375 C 10.429688 -11.390625 10.59375 -12.050781 10.59375 -12.71875 C 10.59375 -13.757812 10.238281 -14.566406 9.53125 -15.140625 C 8.820312 -15.710938 7.8125 -16 6.5 -16 C 4.445312 -16 2.851562 -15.347656 1.71875 -14.046875 L 0.453125 -15.15625 C 1.128906 -15.945312 2 -16.5625 3.0625 -17 C 4.125 -17.4375 5.320312 -17.65625 6.65625 -17.65625 C 8.4375 -17.65625 9.847656 -17.234375 10.890625 -16.390625 C 11.929688 -15.546875 12.453125 -14.390625 12.453125 -12.921875 C 12.453125 -12.023438 12.25 -11.160156 11.84375 -10.328125 C 11.445312 -9.492188 10.691406 -8.535156 9.578125 -7.453125 L 3.625 -1.59375 Z M 13.25 -1.59375 "/></g></g></g><g fill="#000000" fill-opacity="1"><g transform="translate(527.094072, 954.927422)"><g><path d="M 5.90625 -10.328125 C 8.4375 -10.328125 10.28125 -9.867188 11.4375 -8.953125 C 12.59375 -8.046875 13.171875 -6.78125 13.171875 -5.15625 C 13.171875 -4.132812 12.929688 -3.222656 12.453125 -2.421875 C 11.984375 -1.617188 11.273438 -0.988281 10.328125 -0.53125 C 9.378906 -0.0703125 8.210938 0.15625 6.828125 0.15625 C 5.578125 0.15625 4.390625 -0.046875 3.265625 -0.453125 C 2.140625 -0.867188 1.234375 -1.414062 0.546875 -2.09375 L 1.421875 -3.53125 C 2.003906 -2.925781 2.769531 -2.4375 3.71875 -2.0625 C 4.675781 -1.6875 5.703125 -1.5 6.796875 -1.5 C 8.242188 -1.5 9.363281 -1.820312 10.15625 -2.46875 C 10.945312 -3.125 11.34375 -3.992188 11.34375 -5.078125 C 11.34375 -6.273438 10.894531 -7.179688 10 -7.796875 C 9.113281 -8.410156 7.613281 -8.71875 5.5 -8.71875 L 1.78125 -8.71875 L 2.671875 -17.5 L 12.25 -17.5 L 12.25 -15.90625 L 4.25 -15.90625 L 3.65625 -10.328125 Z M 5.90625 -10.328125 "/></g></g></g><g fill="#000000" fill-opacity="1"><g transform="translate(541.24183, 954.927422)"><g><path d="M 7.25 -10 C 9.082031 -9.894531 10.476562 -9.394531 11.4375 -8.5 C 12.394531 -7.613281 12.875 -6.457031 12.875 -5.03125 C 12.875 -4.03125 12.628906 -3.140625 12.140625 -2.359375 C 11.660156 -1.585938 10.945312 -0.972656 10 -0.515625 C 9.050781 -0.0664062 7.894531 0.15625 6.53125 0.15625 C 5.257812 0.15625 4.0625 -0.046875 2.9375 -0.453125 C 1.8125 -0.867188 0.90625 -1.414062 0.21875 -2.09375 L 1.09375 -3.53125 C 1.675781 -2.925781 2.453125 -2.4375 3.421875 -2.0625 C 4.390625 -1.6875 5.425781 -1.5 6.53125 -1.5 C 7.957031 -1.5 9.0625 -1.8125 9.84375 -2.4375 C 10.632812 -3.0625 11.03125 -3.925781 11.03125 -5.03125 C 11.03125 -6.113281 10.632812 -6.960938 9.84375 -7.578125 C 9.0625 -8.191406 7.878906 -8.5 6.296875 -8.5 L 5.046875 -8.5 L 5.046875 -9.828125 L 9.90625 -15.90625 L 0.953125 -15.90625 L 0.953125 -17.5 L 12.203125 -17.5 L 12.203125 -16.21875 Z M 7.25 -10 "/></g></g></g><g fill="#000000" fill-opacity="1"><g transform="translate(679.620317, 954.927422)"><g><path d="M 5.90625 -10.328125 C 8.4375 -10.328125 10.28125 -9.867188 11.4375 -8.953125 C 12.59375 -8.046875 13.171875 -6.78125 13.171875 -5.15625 C 13.171875 -4.132812 12.929688 -3.222656 12.453125 -2.421875 C 11.984375 -1.617188 11.273438 -0.988281 10.328125 -0.53125 C 9.378906 -0.0703125 8.210938 0.15625 6.828125 0.15625 C 5.578125 0.15625 4.390625 -0.046875 3.265625 -0.453125 C 2.140625 -0.867188 1.234375 -1.414062 0.546875 -2.09375 L 1.421875 -3.53125 C 2.003906 -2.925781 2.769531 -2.4375 3.71875 -2.0625 C 4.675781 -1.6875 5.703125 -1.5 6.796875 -1.5 C 8.242188 -1.5 9.363281 -1.820312 10.15625 -2.46875 C 10.945312 -3.125 11.34375 -3.992188 11.34375 -5.078125 C 11.34375 -6.273438 10.894531 -7.179688 10 -7.796875 C 9.113281 -8.410156 7.613281 -8.71875 5.5 -8.71875 L 1.78125 -8.71875 L 2.671875 -17.5 L 12.25 -17.5 L 12.25 -15.90625 L 4.25 -15.90625 L 3.65625 -10.328125 Z M 5.90625 -10.328125 "/></g></g></g><g fill="#000000" fill-opacity="1"><g transform="translate(693.768074, 954.927422)"><g><path d="M 16.171875 -4.59375 L 12.671875 -4.59375 L 12.671875 0 L 10.875 0 L 10.875 -4.59375 L 1 -4.59375 L 1 -5.90625 L 10.28125 -17.5 L 12.28125 -17.5 L 3.328125 -6.203125 L 10.921875 -6.203125 L 10.921875 -10.25 L 12.671875 -10.25 L 12.671875 -6.203125 L 16.171875 -6.203125 Z M 16.171875 -4.59375 "/></g></g></g><g fill="#000000" fill-opacity="1"><g transform="translate(834.560647, 954.927422)"><g><path d="M 5.90625 -10.328125 C 8.4375 -10.328125 10.28125 -9.867188 11.4375 -8.953125 C 12.59375 -8.046875 13.171875 -6.78125 13.171875 -5.15625 C 13.171875 -4.132812 12.929688 -3.222656 12.453125 -2.421875 C 11.984375 -1.617188 11.273438 -0.988281 10.328125 -0.53125 C 9.378906 -0.0703125 8.210938 0.15625 6.828125 0.15625 C 5.578125 0.15625 4.390625 -0.046875 3.265625 -0.453125 C 2.140625 -0.867188 1.234375 -1.414062 0.546875 -2.09375 L 1.421875 -3.53125 C 2.003906 -2.925781 2.769531 -2.4375 3.71875 -2.0625 C 4.675781 -1.6875 5.703125 -1.5 6.796875 -1.5 C 8.242188 -1.5 9.363281 -1.820312 10.15625 -2.46875 C 10.945312 -3.125 11.34375 -3.992188 11.34375 -5.078125 C 11.34375 -6.273438 10.894531 -7.179688 10 -7.796875 C 9.113281 -8.410156 7.613281 -8.71875 5.5 -8.71875 L 1.78125 -8.71875 L 2.671875 -17.5 L 12.25 -17.5 L 12.25 -15.90625 L 4.25 -15.90625 L 3.65625 -10.328125 Z M 5.90625 -10.328125 "/></g></g></g><g fill="#000000" fill-opacity="1"><g transform="translate(848.708404, 954.927422)"><g><path d="M 5.90625 -10.328125 C 8.4375 -10.328125 10.28125 -9.867188 11.4375 -8.953125 C 12.59375 -8.046875 13.171875 -6.78125 13.171875 -5.15625 C 13.171875 -4.132812 12.929688 -3.222656 12.453125 -2.421875 C 11.984375 -1.617188 11.273438 -0.988281 10.328125 -0.53125 C 9.378906 -0.0703125 8.210938 0.15625 6.828125 0.15625 C 5.578125 0.15625 4.390625 -0.046875 3.265625 -0.453125 C 2.140625 -0.867188 1.234375 -1.414062 0.546875 -2.09375 L 1.421875 -3.53125 C 2.003906 -2.925781 2.769531 -2.4375 3.71875 -2.0625 C 4.675781 -1.6875 5.703125 -1.5 6.796875 -1.5 C 8.242188 -1.5 9.363281 -1.820312 10.15625 -2.46875 C 10.945312 -3.125 11.34375 -3.992188 11.34375 -5.078125 C 11.34375 -6.273438 10.894531 -7.179688 10 -7.796875 C 9.113281 -8.410156 7.613281 -8.71875 5.5 -8.71875 L 1.78125 -8.71875 L 2.671875 -17.5 L 12.25 -17.5 L 12.25 -15.90625 L 4.25 -15.90625 L 3.65625 -10.328125 Z M 5.90625 -10.328125 "/></g></g></g><g fill="#000000" fill-opacity="1"><g transform="translate(987.766579, 954.927422)"><g><path d="M 5.90625 -10.328125 C 8.4375 -10.328125 10.28125 -9.867188 11.4375 -8.953125 C 12.59375 -8.046875 13.171875 -6.78125 13.171875 -5.15625 C 13.171875 -4.132812 12.929688 -3.222656 12.453125 -2.421875 C 11.984375 -1.617188 11.273438 -0.988281 10.328125 -0.53125 C 9.378906 -0.0703125 8.210938 0.15625 6.828125 0.15625 C 5.578125 0.15625 4.390625 -0.046875 3.265625 -0.453125 C 2.140625 -0.867188 1.234375 -1.414062 0.546875 -2.09375 L 1.421875 -3.53125 C 2.003906 -2.925781 2.769531 -2.4375 3.71875 -2.0625 C 4.675781 -1.6875 5.703125 -1.5 6.796875 -1.5 C 8.242188 -1.5 9.363281 -1.820312 10.15625 -2.46875 C 10.945312 -3.125 11.34375 -3.992188 11.34375 -5.078125 C 11.34375 -6.273438 10.894531 -7.179688 10 -7.796875 C 9.113281 -8.410156 7.613281 -8.71875 5.5 -8.71875 L 1.78125 -8.71875 L 2.671875 -17.5 L 12.25 -17.5 L 12.25 -15.90625 L 4.25 -15.90625 L 3.65625 -10.328125 Z M 5.90625 -10.328125 "/></g></g></g><g fill="#000000" fill-opacity="1"><g transform="translate(1001.914336, 954.927422)"><g><path d="M 8.546875 -10.46875 C 9.703125 -10.46875 10.722656 -10.25 11.609375 -9.8125 C 12.503906 -9.382812 13.203125 -8.773438 13.703125 -7.984375 C 14.203125 -7.191406 14.453125 -6.269531 14.453125 -5.21875 C 14.453125 -4.15625 14.191406 -3.210938 13.671875 -2.390625 C 13.160156 -1.578125 12.445312 -0.945312 11.53125 -0.5 C 10.625 -0.0625 9.601562 0.15625 8.46875 0.15625 C 6.15625 0.15625 4.378906 -0.601562 3.140625 -2.125 C 1.910156 -3.65625 1.296875 -5.8125 1.296875 -8.59375 C 1.296875 -10.550781 1.628906 -12.203125 2.296875 -13.546875 C 2.960938 -14.898438 3.894531 -15.921875 5.09375 -16.609375 C 6.300781 -17.304688 7.703125 -17.65625 9.296875 -17.65625 C 11.035156 -17.65625 12.421875 -17.335938 13.453125 -16.703125 L 12.71875 -15.25 C 11.882812 -15.800781 10.753906 -16.078125 9.328125 -16.078125 C 7.390625 -16.078125 5.867188 -15.460938 4.765625 -14.234375 C 3.671875 -13.015625 3.125 -11.238281 3.125 -8.90625 C 3.125 -8.488281 3.148438 -8.007812 3.203125 -7.46875 C 3.628906 -8.425781 4.316406 -9.164062 5.265625 -9.6875 C 6.222656 -10.207031 7.316406 -10.46875 8.546875 -10.46875 Z M 8.40625 -1.375 C 9.664062 -1.375 10.691406 -1.71875 11.484375 -2.40625 C 12.273438 -3.101562 12.671875 -4.023438 12.671875 -5.171875 C 12.671875 -6.328125 12.273438 -7.242188 11.484375 -7.921875 C 10.691406 -8.609375 9.625 -8.953125 8.28125 -8.953125 C 7.394531 -8.953125 6.613281 -8.785156 5.9375 -8.453125 C 5.257812 -8.117188 4.726562 -7.660156 4.34375 -7.078125 C 3.96875 -6.492188 3.78125 -5.84375 3.78125 -5.125 C 3.78125 -4.457031 3.957031 -3.835938 4.3125 -3.265625 C 4.664062 -2.703125 5.191406 -2.242188 5.890625 -1.890625 C 6.597656 -1.546875 7.4375 -1.375 8.40625 -1.375 Z M 8.40625 -1.375 "/></g></g></g><g fill="#000000" fill-opacity="1"><g transform="translate(205.314854, 1057.220045)"><g><path d="M 2.84375 -17.5 L 9.96875 -17.5 C 11.820312 -17.5 13.457031 -17.128906 14.875 -16.390625 C 16.289062 -15.648438 17.390625 -14.613281 18.171875 -13.28125 C 18.953125 -11.957031 19.34375 -10.445312 19.34375 -8.75 C 19.34375 -7.050781 18.953125 -5.535156 18.171875 -4.203125 C 17.390625 -2.878906 16.289062 -1.847656 14.875 -1.109375 C 13.457031 -0.367188 11.820312 0 9.96875 0 L 2.84375 0 Z M 9.875 -1.59375 C 11.40625 -1.59375 12.742188 -1.894531 13.890625 -2.5 C 15.046875 -3.113281 15.941406 -3.957031 16.578125 -5.03125 C 17.210938 -6.113281 17.53125 -7.351562 17.53125 -8.75 C 17.53125 -10.144531 17.210938 -11.378906 16.578125 -12.453125 C 15.941406 -13.535156 15.046875 -14.378906 13.890625 -14.984375 C 12.742188 -15.597656 11.40625 -15.90625 9.875 -15.90625 L 4.703125 -15.90625 L 4.703125 -1.59375 Z M 9.875 -1.59375 "/></g></g></g><g fill="#000000" fill-opacity="1"><g transform="translate(375.880277, 1057.220045)"><g><path d="M 5.90625 -10.328125 C 8.4375 -10.328125 10.28125 -9.867188 11.4375 -8.953125 C 12.59375 -8.046875 13.171875 -6.78125 13.171875 -5.15625 C 13.171875 -4.132812 12.929688 -3.222656 12.453125 -2.421875 C 11.984375 -1.617188 11.273438 -0.988281 10.328125 -0.53125 C 9.378906 -0.0703125 8.210938 0.15625 6.828125 0.15625 C 5.578125 0.15625 4.390625 -0.046875 3.265625 -0.453125 C 2.140625 -0.867188 1.234375 -1.414062 0.546875 -2.09375 L 1.421875 -3.53125 C 2.003906 -2.925781 2.769531 -2.4375 3.71875 -2.0625 C 4.675781 -1.6875 5.703125 -1.5 6.796875 -1.5 C 8.242188 -1.5 9.363281 -1.820312 10.15625 -2.46875 C 10.945312 -3.125 11.34375 -3.992188 11.34375 -5.078125 C 11.34375 -6.273438 10.894531 -7.179688 10 -7.796875 C 9.113281 -8.410156 7.613281 -8.71875 5.5 -8.71875 L 1.78125 -8.71875 L 2.671875 -17.5 L 12.25 -17.5 L 12.25 -15.90625 L 4.25 -15.90625 L 3.65625 -10.328125 Z M 5.90625 -10.328125 "/></g></g></g><g fill="#000000" fill-opacity="1"><g transform="translate(390.028035, 1057.220045)"><g><path d="M 6.15625 -17.5 L 6.15625 0 L 4.34375 0 L 4.34375 -15.90625 L 0.21875 -15.90625 L 0.21875 -17.5 Z M 6.15625 -17.5 "/></g></g></g><g fill="#000000" fill-opacity="1"><g transform="translate(527.094072, 1057.220045)"><g><path d="M 5.90625 -10.328125 C 8.4375 -10.328125 10.28125 -9.867188 11.4375 -8.953125 C 12.59375 -8.046875 13.171875 -6.78125 13.171875 -5.15625 C 13.171875 -4.132812 12.929688 -3.222656 12.453125 -2.421875 C 11.984375 -1.617188 11.273438 -0.988281 10.328125 -0.53125 C 9.378906 -0.0703125 8.210938 0.15625 6.828125 0.15625 C 5.578125 0.15625 4.390625 -0.046875 3.265625 -0.453125 C 2.140625 -0.867188 1.234375 -1.414062 0.546875 -2.09375 L 1.421875 -3.53125 C 2.003906 -2.925781 2.769531 -2.4375 3.71875 -2.0625 C 4.675781 -1.6875 5.703125 -1.5 6.796875 -1.5 C 8.242188 -1.5 9.363281 -1.820312 10.15625 -2.46875 C 10.945312 -3.125 11.34375 -3.992188 11.34375 -5.078125 C 11.34375 -6.273438 10.894531 -7.179688 10 -7.796875 C 9.113281 -8.410156 7.613281 -8.71875 5.5 -8.71875 L 1.78125 -8.71875 L 2.671875 -17.5 L 12.25 -17.5 L 12.25 -15.90625 L 4.25 -15.90625 L 3.65625 -10.328125 Z M 5.90625 -10.328125 "/></g></g></g><g fill="#000000" fill-opacity="1"><g transform="translate(541.24183, 1057.220045)"><g><path d="M 7.25 -10 C 9.082031 -9.894531 10.476562 -9.394531 11.4375 -8.5 C 12.394531 -7.613281 12.875 -6.457031 12.875 -5.03125 C 12.875 -4.03125 12.628906 -3.140625 12.140625 -2.359375 C 11.660156 -1.585938 10.945312 -0.972656 10 -0.515625 C 9.050781 -0.0664062 7.894531 0.15625 6.53125 0.15625 C 5.257812 0.15625 4.0625 -0.046875 2.9375 -0.453125 C 1.8125 -0.867188 0.90625 -1.414062 0.21875 -2.09375 L 1.09375 -3.53125 C 1.675781 -2.925781 2.453125 -2.4375 3.421875 -2.0625 C 4.390625 -1.6875 5.425781 -1.5 6.53125 -1.5 C 7.957031 -1.5 9.0625 -1.8125 9.84375 -2.4375 C 10.632812 -3.0625 11.03125 -3.925781 11.03125 -5.03125 C 11.03125 -6.113281 10.632812 -6.960938 9.84375 -7.578125 C 9.0625 -8.191406 7.878906 -8.5 6.296875 -8.5 L 5.046875 -8.5 L 5.046875 -9.828125 L 9.90625 -15.90625 L 0.953125 -15.90625 L 0.953125 -17.5 L 12.203125 -17.5 L 12.203125 -16.21875 Z M 7.25 -10 "/></g></g></g><g fill="#000000" fill-opacity="1"><g transform="translate(680.815629, 1057.220045)"><g><path d="M 5.90625 -10.328125 C 8.4375 -10.328125 10.28125 -9.867188 11.4375 -8.953125 C 12.59375 -8.046875 13.171875 -6.78125 13.171875 -5.15625 C 13.171875 -4.132812 12.929688 -3.222656 12.453125 -2.421875 C 11.984375 -1.617188 11.273438 -0.988281 10.328125 -0.53125 C 9.378906 -0.0703125 8.210938 0.15625 6.828125 0.15625 C 5.578125 0.15625 4.390625 -0.046875 3.265625 -0.453125 C 2.140625 -0.867188 1.234375 -1.414062 0.546875 -2.09375 L 1.421875 -3.53125 C 2.003906 -2.925781 2.769531 -2.4375 3.71875 -2.0625 C 4.675781 -1.6875 5.703125 -1.5 6.796875 -1.5 C 8.242188 -1.5 9.363281 -1.820312 10.15625 -2.46875 C 10.945312 -3.125 11.34375 -3.992188 11.34375 -5.078125 C 11.34375 -6.273438 10.894531 -7.179688 10 -7.796875 C 9.113281 -8.410156 7.613281 -8.71875 5.5 -8.71875 L 1.78125 -8.71875 L 2.671875 -17.5 L 12.25 -17.5 L 12.25 -15.90625 L 4.25 -15.90625 L 3.65625 -10.328125 Z M 5.90625 -10.328125 "/></g></g></g><g fill="#000000" fill-opacity="1"><g transform="translate(694.963386, 1057.220045)"><g><path d="M 5.90625 -10.328125 C 8.4375 -10.328125 10.28125 -9.867188 11.4375 -8.953125 C 12.59375 -8.046875 13.171875 -6.78125 13.171875 -5.15625 C 13.171875 -4.132812 12.929688 -3.222656 12.453125 -2.421875 C 11.984375 -1.617188 11.273438 -0.988281 10.328125 -0.53125 C 9.378906 -0.0703125 8.210938 0.15625 6.828125 0.15625 C 5.578125 0.15625 4.390625 -0.046875 3.265625 -0.453125 C 2.140625 -0.867188 1.234375 -1.414062 0.546875 -2.09375 L 1.421875 -3.53125 C 2.003906 -2.925781 2.769531 -2.4375 3.71875 -2.0625 C 4.675781 -1.6875 5.703125 -1.5 6.796875 -1.5 C 8.242188 -1.5 9.363281 -1.820312 10.15625 -2.46875 C 10.945312 -3.125 11.34375 -3.992188 11.34375 -5.078125 C 11.34375 -6.273438 10.894531 -7.179688 10 -7.796875 C 9.113281 -8.410156 7.613281 -8.71875 5.5 -8.71875 L 1.78125 -8.71875 L 2.671875 -17.5 L 12.25 -17.5 L 12.25 -15.90625 L 4.25 -15.90625 L 3.65625 -10.328125 Z M 5.90625 -10.328125 "/></g></g></g><g fill="#000000" fill-opacity="1"><g transform="translate(834.267678, 1057.220045)"><g><path d="M 5.90625 -10.328125 C 8.4375 -10.328125 10.28125 -9.867188 11.4375 -8.953125 C 12.59375 -8.046875 13.171875 -6.78125 13.171875 -5.15625 C 13.171875 -4.132812 12.929688 -3.222656 12.453125 -2.421875 C 11.984375 -1.617188 11.273438 -0.988281 10.328125 -0.53125 C 9.378906 -0.0703125 8.210938 0.15625 6.828125 0.15625 C 5.578125 0.15625 4.390625 -0.046875 3.265625 -0.453125 C 2.140625 -0.867188 1.234375 -1.414062 0.546875 -2.09375 L 1.421875 -3.53125 C 2.003906 -2.925781 2.769531 -2.4375 3.71875 -2.0625 C 4.675781 -1.6875 5.703125 -1.5 6.796875 -1.5 C 8.242188 -1.5 9.363281 -1.820312 10.15625 -2.46875 C 10.945312 -3.125 11.34375 -3.992188 11.34375 -5.078125 C 11.34375 -6.273438 10.894531 -7.179688 10 -7.796875 C 9.113281 -8.410156 7.613281 -8.71875 5.5 -8.71875 L 1.78125 -8.71875 L 2.671875 -17.5 L 12.25 -17.5 L 12.25 -15.90625 L 4.25 -15.90625 L 3.65625 -10.328125 Z M 5.90625 -10.328125 "/></g></g></g><g fill="#000000" fill-opacity="1"><g transform="translate(848.415436, 1057.220045)"><g><path d="M 13.65625 -17.5 L 13.65625 -16.21875 L 6.328125 0 L 4.375 0 L 11.578125 -15.90625 L 2.578125 -15.90625 L 2.578125 -12.625 L 0.796875 -12.625 L 0.796875 -17.5 Z M 13.65625 -17.5 "/></g></g></g><g fill="#000000" fill-opacity="1"><g transform="translate(987.766579, 1057.220045)"><g><path d="M 5.90625 -10.328125 C 8.4375 -10.328125 10.28125 -9.867188 11.4375 -8.953125 C 12.59375 -8.046875 13.171875 -6.78125 13.171875 -5.15625 C 13.171875 -4.132812 12.929688 -3.222656 12.453125 -2.421875 C 11.984375 -1.617188 11.273438 -0.988281 10.328125 -0.53125 C 9.378906 -0.0703125 8.210938 0.15625 6.828125 0.15625 C 5.578125 0.15625 4.390625 -0.046875 3.265625 -0.453125 C 2.140625 -0.867188 1.234375 -1.414062 0.546875 -2.09375 L 1.421875 -3.53125 C 2.003906 -2.925781 2.769531 -2.4375 3.71875 -2.0625 C 4.675781 -1.6875 5.703125 -1.5 6.796875 -1.5 C 8.242188 -1.5 9.363281 -1.820312 10.15625 -2.46875 C 10.945312 -3.125 11.34375 -3.992188 11.34375 -5.078125 C 11.34375 -6.273438 10.894531 -7.179688 10 -7.796875 C 9.113281 -8.410156 7.613281 -8.71875 5.5 -8.71875 L 1.78125 -8.71875 L 2.671875 -17.5 L 12.25 -17.5 L 12.25 -15.90625 L 4.25 -15.90625 L 3.65625 -10.328125 Z M 5.90625 -10.328125 "/></g></g></g><g fill="#000000" fill-opacity="1"><g transform="translate(1001.914336, 1057.220045)"><g><path d="M 6.75 -17.65625 C 9.0625 -17.65625 10.832031 -16.890625 12.0625 -15.359375 C 13.300781 -13.835938 13.921875 -11.6875 13.921875 -8.90625 C 13.921875 -6.945312 13.585938 -5.289062 12.921875 -3.9375 C 12.253906 -2.59375 11.320312 -1.570312 10.125 -0.875 C 8.925781 -0.1875 7.523438 0.15625 5.921875 0.15625 C 4.191406 0.15625 2.8125 -0.160156 1.78125 -0.796875 L 2.5 -2.25 C 3.332031 -1.695312 4.46875 -1.421875 5.90625 -1.421875 C 7.832031 -1.421875 9.34375 -2.03125 10.4375 -3.25 C 11.539062 -4.476562 12.09375 -6.257812 12.09375 -8.59375 C 12.09375 -9.03125 12.070312 -9.507812 12.03125 -10.03125 C 11.59375 -9.070312 10.898438 -8.332031 9.953125 -7.8125 C 9.003906 -7.289062 7.910156 -7.03125 6.671875 -7.03125 C 5.523438 -7.03125 4.503906 -7.242188 3.609375 -7.671875 C 2.722656 -8.109375 2.03125 -8.722656 1.53125 -9.515625 C 1.03125 -10.304688 0.78125 -11.226562 0.78125 -12.28125 C 0.78125 -13.34375 1.035156 -14.28125 1.546875 -15.09375 C 2.066406 -15.914062 2.78125 -16.546875 3.6875 -16.984375 C 4.59375 -17.429688 5.613281 -17.65625 6.75 -17.65625 Z M 6.953125 -8.546875 C 7.835938 -8.546875 8.613281 -8.710938 9.28125 -9.046875 C 9.957031 -9.378906 10.488281 -9.835938 10.875 -10.421875 C 11.257812 -11.003906 11.453125 -11.65625 11.453125 -12.375 C 11.453125 -13.039062 11.269531 -13.65625 10.90625 -14.21875 C 10.550781 -14.789062 10.023438 -15.25 9.328125 -15.59375 C 8.628906 -15.945312 7.796875 -16.125 6.828125 -16.125 C 5.554688 -16.125 4.523438 -15.773438 3.734375 -15.078125 C 2.941406 -14.390625 2.546875 -13.472656 2.546875 -12.328125 C 2.546875 -11.171875 2.941406 -10.25 3.734375 -9.5625 C 4.523438 -8.882812 5.597656 -8.546875 6.953125 -8.546875 Z M 6.953125 -8.546875 "/></g></g></g><path fill="#000000" d="M 120.675781 638.175781 L 120.675781 1098.503906 M 310.601562 638.175781 L 310.601562 1098.503906 M 464.34375 638.175781 L 464.34375 1098.503906 M 618.089844 638.175781 L 618.089844 1098.503906 M 771.835938 638.175781 L 771.835938 1098.503906 M 925.578125 638.175781 L 925.578125 1098.503906 M 1079.324219 638.175781 L 1079.324219 1098.503906 M 120 637.503906 L 1080 637.503906 M 120 702.855469 L 1080 702.855469 M 120 794.535156 L 1080 794.535156 M 120 895.753906 L 1080 895.753906 M 120 996.546875 L 1080 996.546875 M 120 1099.179688 L 1080 1099.179688 " fill-opacity="1" fill-rule="nonzero"/><g clip-path="url(#id1)"><path stroke-linecap="butt" transform="matrix(0.75, 0, 0, 0.75, 120.000018, 636.826963)" fill="none" stroke-linejoin="miter" d="M 0.901018 1.798425 L 0.901018 615.569313 M 254.135415 1.798425 L 254.135415 615.569313 M 459.125017 1.798425 L 459.125017 615.569313 M 664.119827 1.798425 L 664.119827 615.569313 M 869.114637 1.798425 L 869.114637 615.569313 M 1074.104239 1.798425 L 1074.104239 615.569313 M 1279.099049 1.798425 L 1279.099049 615.569313 M -0.0000240533 0.902591 L 1280.000091 0.902591 M -0.0000240533 88.038016 L 1280.000091 88.038016 M -0.0000240533 210.27761 L 1280.000091 210.27761 M -0.0000240533 345.235955 L 1280.000091 345.235955 M -0.0000240533 479.626592 L 1280.000091 479.626592 M -0.0000240533 616.470355 L 1280.000091 616.470355 " stroke="#000000" stroke-width="1.8" stroke-opacity="1" stroke-miterlimit="4"/></g><path stroke-linecap="butt" transform="matrix(0.860309, -3.65058, 3.650013, 0.860176, 333.079686, 474.499857)" fill="none" stroke-linejoin="miter" d="M 0.4998 0.000561693 L 79.888786 -0.0000443541 " stroke="#000000" stroke-width="1" stroke-opacity="1" stroke-miterlimit="4"/><path stroke-linecap="round" transform="matrix(0.860309, -3.65058, 3.650013, 0.860176, 333.079686, 474.499857)" fill="none" stroke-linejoin="round" d="M 2.500195 -1.500466 L 0.4998 0.000561693 L 2.499993 1.500427 " stroke="#000000" stroke-width="1" stroke-opacity="1" stroke-miterlimit="4"/><path stroke-linecap="round" transform="matrix(0.860309, -3.65058, 3.650013, 0.860176, 402.238675, 181.035168)" fill="none" stroke-linejoin="round" d="M -2.499908 -1.499912 L -0.499714 -0.0000472226 L -2.500348 1.499967 " stroke="#000000" stroke-width="1" stroke-opacity="1" stroke-miterlimit="4"/><path stroke-linecap="butt" transform="matrix(3.751817, 0.000000000000000827, -0.000000000000000827, 3.75, 503.293232, 562.903922)" fill="none" stroke-linejoin="miter" d="M 0.499688 -0.00042074 L 51.077262 -0.00042074 " stroke="#000000" stroke-width="1" stroke-opacity="1" stroke-miterlimit="4"/><path stroke-linecap="round" transform="matrix(3.751817, 0.000000000000000827, -0.000000000000000827, 3.75, 503.293232, 562.903922)" fill="none" stroke-linejoin="round" d="M 2.49976 -1.500421 L 0.499688 -0.00042074 L 2.49976 1.499579 " stroke="#000000" stroke-width="1" stroke-opacity="1" stroke-miterlimit="4"/><path stroke-linecap="round" transform="matrix(3.751817, 0.000000000000000827, -0.000000000000000827, 3.75, 696.800462, 562.903922)" fill="none" stroke-linejoin="round" d="M -2.499745 -1.500421 L -0.499673 -0.00042074 L -2.499745 1.499579 " stroke="#000000" stroke-width="1" stroke-opacity="1" stroke-miterlimit="4"/><g fill="#000000" fill-opacity="1"><g transform="translate(283.588832, 282.802133)"><g><path d="M 13.171875 0.1875 C 10.984375 0.1875 9.007812 -0.289062 7.25 -1.25 C 5.5 -2.21875 4.125 -3.554688 3.125 -5.265625 C 2.132812 -6.984375 1.640625 -8.90625 1.640625 -11.03125 C 1.640625 -13.144531 2.132812 -15.054688 3.125 -16.765625 C 4.125 -18.484375 5.503906 -19.820312 7.265625 -20.78125 C 9.035156 -21.75 11.015625 -22.234375 13.203125 -22.234375 C 14.835938 -22.234375 16.347656 -21.957031 17.734375 -21.40625 C 19.117188 -20.863281 20.296875 -20.070312 21.265625 -19.03125 L 19.78125 -17.546875 C 18.0625 -19.285156 15.890625 -20.15625 13.265625 -20.15625 C 11.515625 -20.15625 9.925781 -19.753906 8.5 -18.953125 C 7.070312 -18.160156 5.953125 -17.070312 5.140625 -15.6875 C 4.335938 -14.300781 3.9375 -12.75 3.9375 -11.03125 C 3.9375 -9.300781 4.335938 -7.742188 5.140625 -6.359375 C 5.953125 -4.972656 7.070312 -3.878906 8.5 -3.078125 C 9.925781 -2.285156 11.515625 -1.890625 13.265625 -1.890625 C 15.910156 -1.890625 18.082031 -2.769531 19.78125 -4.53125 L 21.265625 -3.0625 C 20.296875 -2.007812 19.113281 -1.203125 17.71875 -0.640625 C 16.320312 -0.0859375 14.804688 0.1875 13.171875 0.1875 Z M 13.171875 0.1875 "/></g></g></g><g clip-path="url(#id2)"><path fill="#ffffff" d="M 258.089844 223.546875 L 330.839844 223.546875 L 330.839844 337.546875 L 258.089844 337.546875 L 258.089844 223.546875 " fill-opacity="1" fill-rule="nonzero"/></g><path stroke-linecap="butt" transform="matrix(0.00000000000000023, -3.752952, 3.75, 0.00000000000000023, 668.062361, 477.333561)" fill="none" stroke-linejoin="miter" d="M 0.500014 0.0000370941 L 86.83414 0.0000370941 " stroke="#000000" stroke-width="1" stroke-opacity="1" stroke-miterlimit="4"/><path stroke-linecap="round" transform="matrix(0.00000000000000023, -3.752952, 3.75, 0.00000000000000023, 668.062361, 477.333561)" fill="none" stroke-linejoin="round" d="M 2.499482 -1.499963 L 0.500014 0.0000370941 L 2.499482 1.500037 " stroke="#000000" stroke-width="1" stroke-opacity="1" stroke-miterlimit="4"/><path stroke-linecap="round" transform="matrix(0.00000000000000023, -3.752952, 3.75, 0.00000000000000023, 668.062361, 149.572203)" fill="none" stroke-linejoin="round" d="M -2.499612 -1.499963 L -0.500144 0.0000370941 L -2.499612 1.500037 " stroke="#000000" stroke-width="1" stroke-opacity="1" stroke-miterlimit="4"/><path fill="#000000" d="M 691.175781 500.4375 L 510.601562 500.4375 C 499.210938 500.4375 488.65625 496.078125 480.617188 488.027344 C 472.578125 479.980469 468.222656 469.417969 468.222656 458.015625 L 468.890625 310.960938 L 432.710938 460.195312 C 429.359375 473.777344 415.625 482.328125 401.890625 479.308594 L 374.921875 473.273438 C 368.050781 471.765625 362.191406 467.574219 358.503906 461.703125 C 354.820312 455.835938 353.648438 448.625 355.320312 441.917969 L 413.113281 206.328125 C 417.96875 186.878906 430.867188 170.613281 448.792969 161.726562 L 529.699219 120.308594 C 529.863281 120.308594 530.03125 120.144531 530.199219 120.144531 C 538.910156 116.621094 549.128906 120.144531 552.476562 127.855469 C 560.351562 146.300781 577.941406 157.199219 599.546875 157.367188 C 599.714844 157.367188 599.714844 157.367188 599.882812 157.367188 C 621.660156 157.367188 640.921875 145.796875 648.960938 127.6875 C 652.3125 120.144531 662.363281 116.453125 670.90625 119.976562 C 671.074219 119.976562 671.242188 120.144531 671.410156 120.144531 L 758.011719 162.902344 C 758.011719 162.902344 758.175781 162.902344 758.175781 163.070312 C 775.765625 172.625 789.167969 189.226562 794.695312 208.507812 C 794.695312 208.675781 794.695312 208.84375 794.863281 208.84375 L 847.292969 438.394531 C 848.964844 445.773438 847.460938 453.65625 842.9375 459.691406 C 838.414062 465.726562 831.378906 469.585938 823.671875 470.085938 L 791.175781 472.101562 C 778.445312 472.9375 767.222656 464.386719 764.375 451.976562 L 732.550781 313.980469 L 733.21875 458.015625 C 733.21875 469.417969 728.863281 479.980469 720.824219 488.027344 C 712.78125 496.078125 702.566406 500.4375 691.175781 500.4375 Z M 475.925781 247.242188 C 476.261719 247.242188 476.429688 247.242188 476.765625 247.242188 C 480.113281 247.578125 482.628906 250.597656 482.628906 253.949219 L 481.789062 458.015625 C 481.789062 465.726562 484.804688 472.9375 490.164062 478.472656 C 495.691406 484.003906 502.894531 487.023438 510.601562 487.023438 L 691.175781 487.023438 C 698.878906 487.023438 706.082031 484.003906 711.609375 478.472656 C 717.136719 472.9375 719.984375 465.726562 719.984375 458.015625 L 719.148438 253.949219 C 719.148438 250.597656 721.660156 247.578125 725.011719 247.242188 C 728.359375 246.90625 731.542969 249.085938 732.382812 252.441406 L 777.609375 449.128906 C 778.949219 455.164062 784.476562 459.1875 790.507812 458.851562 L 823.003906 456.839844 C 826.6875 456.671875 830.039062 454.828125 832.214844 451.808594 C 834.394531 448.792969 835.230469 445.101562 834.394531 441.414062 L 781.964844 212.03125 C 777.273438 196.269531 766.386719 182.855469 751.980469 174.972656 L 666.046875 132.214844 C 663.871094 131.542969 661.691406 132.550781 661.359375 133.054688 C 651.140625 156.027344 627.1875 170.78125 600.050781 170.78125 C 599.882812 170.78125 599.714844 170.78125 599.546875 170.78125 C 572.914062 170.613281 550.132812 156.195312 540.25 133.054688 C 540.082031 132.550781 537.90625 131.542969 535.726562 132.382812 L 454.988281 173.632812 C 440.582031 180.84375 430.03125 193.921875 426.175781 209.515625 L 368.386719 445.101562 C 367.550781 448.457031 368.050781 451.808594 369.894531 454.660156 C 371.738281 457.511719 374.417969 459.523438 377.769531 460.195312 L 404.738281 466.230469 C 411.269531 467.738281 417.96875 463.546875 419.644531 457.007812 L 469.394531 252.273438 C 470.066406 249.253906 472.914062 247.242188 475.925781 247.242188 Z M 823.503906 463.378906 Z M 823.503906 463.378906 " fill-opacity="1" fill-rule="nonzero"/><g clip-path="url(#id3)"><path fill="#000000" d="M 703.570312 532.296875 L 498.375 532.296875 C 494.6875 532.296875 491.671875 529.277344 491.671875 525.589844 L 491.671875 491.550781 C 491.671875 489.371094 492.679688 487.359375 494.519531 486.015625 C 496.363281 484.84375 498.539062 484.507812 500.71875 485.179688 C 503.902344 486.351562 507.25 487.023438 510.601562 487.023438 L 691.175781 487.023438 C 694.523438 487.023438 697.875 486.351562 701.058594 485.179688 C 703.066406 484.339844 705.414062 484.675781 707.253906 486.015625 C 709.097656 487.191406 710.101562 489.371094 710.101562 491.550781 L 710.101562 525.589844 C 710.269531 529.277344 707.253906 532.296875 703.570312 532.296875 Z M 505.074219 518.882812 L 696.871094 518.882812 L 696.871094 500.101562 C 695.027344 500.4375 693.183594 500.4375 691.34375 500.4375 L 510.601562 500.4375 C 508.757812 500.4375 506.917969 500.269531 505.074219 500.101562 Z M 505.074219 518.882812 " fill-opacity="1" fill-rule="nonzero"/></g><path fill="#000000" d="M 402.054688 507.480469 C 400.714844 507.480469 399.375 507.3125 398.035156 506.976562 L 365.203125 498.761719 C 356.328125 496.582031 350.96875 487.527344 353.144531 478.808594 L 358.503906 457.511719 C 359.175781 454.996094 361.183594 452.984375 363.699219 452.480469 C 366.210938 451.976562 368.890625 452.984375 370.398438 455.164062 C 372.242188 457.679688 374.921875 459.523438 377.933594 460.195312 L 404.902344 466.230469 C 407.917969 466.902344 411.101562 466.398438 413.78125 464.890625 C 416.128906 463.546875 418.976562 463.714844 421.152344 465.390625 C 423.328125 467.070312 424.335938 469.753906 423.664062 472.433594 L 417.96875 495.070312 C 416.128906 502.449219 409.425781 507.480469 402.054688 507.480469 Z M 368.890625 471.09375 L 366.210938 481.992188 C 365.875 483.667969 366.878906 485.347656 368.386719 485.679688 L 401.21875 493.898438 C 402.894531 494.234375 404.570312 493.226562 404.902344 491.71875 L 407.917969 479.980469 C 405.910156 479.980469 403.898438 479.8125 401.890625 479.308594 L 374.921875 473.273438 C 372.910156 472.769531 370.734375 472.097656 368.890625 471.09375 Z M 368.890625 471.09375 " fill-opacity="1" fill-rule="nonzero"/><path fill="#000000" d="M 797.039062 500.269531 C 789.5 500.269531 782.96875 494.734375 781.796875 487.023438 L 778.613281 465.894531 C 778.277344 463.714844 779.117188 461.535156 780.792969 460.027344 C 782.464844 458.519531 784.644531 458.015625 786.820312 458.519531 C 787.992188 458.851562 789.335938 458.851562 790.507812 458.851562 L 823.003906 456.839844 C 826.351562 456.671875 829.367188 455.164062 831.546875 452.648438 C 833.222656 450.636719 835.902344 449.964844 838.414062 450.636719 C 840.925781 451.308594 842.769531 453.488281 843.105469 456.003906 L 846.453125 477.632812 C 847.125 481.65625 845.953125 485.847656 843.605469 489.035156 C 841.09375 492.386719 837.578125 494.570312 833.554688 495.070312 L 799.382812 500.101562 C 798.546875 500.269531 797.875 500.269531 797.039062 500.269531 Z M 793.1875 472.097656 L 795.195312 485.179688 C 795.363281 486.351562 796.371094 487.023438 797.542969 486.855469 L 831.714844 481.824219 C 832.382812 481.65625 832.886719 481.320312 833.054688 480.988281 C 833.222656 480.652344 833.554688 480.148438 833.386719 479.476562 L 831.714844 468.410156 C 829.367188 469.417969 826.6875 469.917969 824.007812 470.085938 Z M 823.503906 463.378906 Z M 823.503906 463.378906 " fill-opacity="1" fill-rule="nonzero"/><path fill="#000000" d="M 600.21875 170.78125 C 600.050781 170.78125 599.882812 170.78125 599.714844 170.78125 C 573.082031 170.613281 550.300781 156.195312 540.417969 133.054688 C 540.417969 132.886719 539.746094 132.382812 538.40625 132.046875 C 534.890625 131.542969 532.546875 128.359375 532.878906 124.835938 C 533.214844 121.316406 536.0625 118.632812 539.582031 118.632812 L 662.027344 118.632812 C 665.546875 118.632812 668.394531 121.316406 668.730469 124.671875 C 669.0625 128.023438 666.71875 131.210938 663.367188 131.878906 C 662.195312 132.046875 661.527344 132.71875 661.527344 132.886719 C 651.308594 156.027344 627.1875 170.78125 600.21875 170.78125 Z M 554.824219 132.214844 C 563.535156 147.976562 579.949219 157.199219 599.714844 157.367188 C 619.648438 157.535156 637.570312 147.808594 646.785156 132.214844 Z M 554.824219 132.214844 " fill-opacity="1" fill-rule="nonzero"/><g fill="#000000" fill-opacity="1"><g transform="translate(319.962363, 316.842667)"><g><path d="M 17.421875 -5.890625 L 5.140625 -5.890625 L 2.484375 0 L 0.0625 0 L 10.140625 -22.046875 L 12.4375 -22.046875 L 22.515625 0 L 20.0625 0 Z M 16.5625 -7.78125 L 11.28125 -19.625 L 5.984375 -7.78125 Z M 16.5625 -7.78125 "/></g></g></g><g fill="#000000" fill-opacity="1"><g transform="translate(681.943024, 330.114238)"><g><path d="M 13.171875 0.1875 C 10.984375 0.1875 9.007812 -0.289062 7.25 -1.25 C 5.5 -2.21875 4.125 -3.554688 3.125 -5.265625 C 2.132812 -6.984375 1.640625 -8.90625 1.640625 -11.03125 C 1.640625 -13.144531 2.132812 -15.054688 3.125 -16.765625 C 4.125 -18.484375 5.503906 -19.820312 7.265625 -20.78125 C 9.035156 -21.75 11.015625 -22.234375 13.203125 -22.234375 C 14.835938 -22.234375 16.347656 -21.957031 17.734375 -21.40625 C 19.117188 -20.863281 20.296875 -20.070312 21.265625 -19.03125 L 19.78125 -17.546875 C 18.0625 -19.285156 15.890625 -20.15625 13.265625 -20.15625 C 11.515625 -20.15625 9.925781 -19.753906 8.5 -18.953125 C 7.070312 -18.160156 5.953125 -17.070312 5.140625 -15.6875 C 4.335938 -14.300781 3.9375 -12.75 3.9375 -11.03125 C 3.9375 -9.300781 4.335938 -7.742188 5.140625 -6.359375 C 5.953125 -4.972656 7.070312 -3.878906 8.5 -3.078125 C 9.925781 -2.285156 11.515625 -1.890625 13.265625 -1.890625 C 15.910156 -1.890625 18.082031 -2.769531 19.78125 -4.53125 L 21.265625 -3.0625 C 20.296875 -2.007812 19.113281 -1.203125 17.71875 -0.640625 C 16.320312 -0.0859375 14.804688 0.1875 13.171875 0.1875 Z M 13.171875 0.1875 "/></g></g></g><g fill="#000000" fill-opacity="1"><g transform="translate(588.125016, 599.692438)"><g><path d="M 17.484375 -11.375 C 18.929688 -11.0625 20.046875 -10.4375 20.828125 -9.5 C 21.617188 -8.5625 22.015625 -7.359375 22.015625 -5.890625 C 22.015625 -4.003906 21.316406 -2.550781 19.921875 -1.53125 C 18.523438 -0.507812 16.460938 0 13.734375 0 L 3.59375 0 L 3.59375 -22.046875 L 13.109375 -22.046875 C 15.566406 -22.046875 17.472656 -21.550781 18.828125 -20.5625 C 20.179688 -19.582031 20.859375 -18.1875 20.859375 -16.375 C 20.859375 -15.15625 20.554688 -14.117188 19.953125 -13.265625 C 19.359375 -12.421875 18.535156 -11.789062 17.484375 -11.375 Z M 5.921875 -20.125 L 5.921875 -12.125 L 12.953125 -12.125 C 14.734375 -12.125 16.101562 -12.460938 17.0625 -13.140625 C 18.03125 -13.828125 18.515625 -14.820312 18.515625 -16.125 C 18.515625 -17.425781 18.03125 -18.414062 17.0625 -19.09375 C 16.101562 -19.78125 14.734375 -20.125 12.953125 -20.125 Z M 13.703125 -1.921875 C 15.671875 -1.921875 17.160156 -2.253906 18.171875 -2.921875 C 19.179688 -3.597656 19.6875 -4.648438 19.6875 -6.078125 C 19.6875 -8.828125 17.691406 -10.203125 13.703125 -10.203125 L 5.921875 -10.203125 L 5.921875 -1.921875 Z M 13.703125 -1.921875 "/></g></g></g><path stroke-linecap="butt" transform="matrix(3.750214, 0, 0, 3.75, 499.854416, 252.952165)" fill="none" stroke-linejoin="miter" d="M 0.500252 0.000256128 L 54.097189 0.000256128 " stroke="#000000" stroke-width="1" stroke-opacity="1" stroke-miterlimit="4"/><path stroke-linecap="round" transform="matrix(3.750214, 0, 0, 3.75, 499.854416, 252.952165)" fill="none" stroke-linejoin="round" d="M 2.500138 -1.499744 L 0.500252 0.000256128 L 2.500138 1.500256 " stroke="#000000" stroke-width="1" stroke-opacity="1" stroke-miterlimit="4"/><path stroke-linecap="round" transform="matrix(3.750214, 0, 0, 3.75, 704.604758, 252.952165)" fill="none" stroke-linejoin="round" d="M -2.499667 -1.499744 L -0.499782 0.000256128 L -2.499667 1.500256 " stroke="#000000" stroke-width="1" stroke-opacity="1" stroke-miterlimit="4"/><g fill="#000000" fill-opacity="1"><g transform="translate(589.211232, 298.24264)"><g><path d="M 3.59375 -22.046875 L 12.5625 -22.046875 C 14.894531 -22.046875 16.953125 -21.578125 18.734375 -20.640625 C 20.523438 -19.710938 21.910156 -18.410156 22.890625 -16.734375 C 23.878906 -15.066406 24.375 -13.164062 24.375 -11.03125 C 24.375 -8.882812 23.878906 -6.972656 22.890625 -5.296875 C 21.910156 -3.628906 20.523438 -2.328125 18.734375 -1.390625 C 16.953125 -0.460938 14.894531 0 12.5625 0 L 3.59375 0 Z M 12.4375 -2.015625 C 14.375 -2.015625 16.066406 -2.394531 17.515625 -3.15625 C 18.960938 -3.925781 20.082031 -4.988281 20.875 -6.34375 C 21.675781 -7.695312 22.078125 -9.257812 22.078125 -11.03125 C 22.078125 -12.789062 21.675781 -14.347656 20.875 -15.703125 C 20.082031 -17.054688 18.960938 -18.113281 17.515625 -18.875 C 16.066406 -19.644531 14.375 -20.03125 12.4375 -20.03125 L 5.921875 -20.03125 L 5.921875 -2.015625 Z M 12.4375 -2.015625 "/></g></g></g></svg>