<svg xmlns="http://www.w3.org/2000/svg" xmlns:xlink="http://www.w3.org/1999/xlink" width="1600" zoomAndPan="magnify" viewBox="0 0 1200 1199.999942" height="1600" preserveAspectRatio="xMidYMid meet" version="1.0"><defs><g/><clipPath id="12fb21e3b9"><path d="M 395.039062 111 L 805.289062 111 L 805.289062 573.859375 L 395.039062 573.859375 Z M 395.039062 111 " clip-rule="nonzero"/></clipPath><clipPath id="18ebb67493"><path d="M 120 636.828125 L 1080 636.828125 L 1080 1122 L 120 1122 Z M 120 636.828125 " clip-rule="nonzero"/></clipPath></defs><rect x="-120" width="1440" fill="#ffffff" y="-119.999994" height="1439.999931" fill-opacity="1"/><rect x="-120" width="1440" fill="#ffffff" y="-119.999994" height="1439.999931" fill-opacity="1"/><rect x="-120" width="1440" fill="#ffffff" y="-119.999994" height="1439.999931" fill-opacity="1"/><path stroke-linecap="butt" transform="matrix(0.000000000000000046, -0.750333, 0.75, 0.000000000000000046, 494.007057, 463.919842)" fill="none" stroke-linejoin="miter" d="M 2.501386 2.501008 L 419.316118 2.501008 " stroke="#000000" stroke-width="5" stroke-opacity="1" stroke-miterlimit="4"/><path stroke-linecap="round" transform="matrix(0.00000000000000023, -3.751667, 3.75, 0.00000000000000023, 495.882056, 463.919842)" fill="none" stroke-linejoin="round" d="M 2.50043 -1.499798 L 0.500277 0.000201644 L 2.50043 1.500202 " stroke="#000000" stroke-width="1" stroke-opacity="1" stroke-miterlimit="4"/><path stroke-linecap="round" transform="matrix(0.00000000000000023, -3.751667, 3.75, 0.00000000000000023, 495.882056, 147.418882)" fill="none" stroke-linejoin="round" d="M -2.499687 -1.499798 L -0.499534 0.000201644 L -2.499687 1.500202 " stroke="#000000" stroke-width="1" stroke-opacity="1" stroke-miterlimit="4"/><path fill="#100f0d" d="M 456.570312 202.503906 C 452.589844 202.183594 449.070312 205.140625 448.738281 209.128906 C 437.492188 344.761719 473.484375 491.601562 473.847656 493.074219 C 474.648438 496.296875 477.546875 498.5625 480.871094 498.570312 L 718.753906 499.289062 C 718.761719 499.289062 718.769531 499.289062 718.773438 499.289062 C 722.773438 499.289062 726.023438 496.058594 726.03125 492.066406 C 726.03125 492.042969 726.03125 492.027344 726.03125 492.007812 C 730.316406 474.636719 761.625 338.414062 750.910156 209.128906 C 750.578125 205.140625 747.089844 202.164062 743.074219 202.503906 C 739.078125 202.832031 736.109375 206.339844 736.4375 210.328125 C 746.425781 330.789062 718.667969 459.820312 712.882812 484.773438 L 486.652344 484.089844 C 480.339844 456.410156 453.382812 328.855469 463.207031 210.328125 C 463.542969 206.339844 460.566406 202.832031 456.570312 202.503906 " fill-opacity="1" fill-rule="nonzero"/><g clip-path="url(#12fb21e3b9)"><path fill="#100f0d" d="M 600.164062 238.128906 L 530.355469 129.035156 C 552.070312 131.699219 576.117188 133.035156 600.171875 133.035156 C 624.21875 133.035156 648.261719 131.699219 669.976562 129.035156 Z M 786.261719 145.367188 L 705.546875 113.109375 C 698.859375 110.433594 691.578125 110.738281 685.308594 113.445312 C 684.078125 112.878906 682.675781 112.648438 681.234375 112.859375 L 677.253906 113.433594 C 630.441406 120.25 569.941406 120.257812 523.117188 113.441406 L 519.09375 112.859375 C 517.65625 112.648438 516.253906 112.878906 515.023438 113.445312 C 508.75 110.738281 501.472656 110.4375 494.785156 113.109375 L 414.070312 145.367188 C 402.695312 149.914062 395.058594 161.566406 395.058594 174.363281 L 395.058594 549.753906 C 395.058594 562.933594 405.792969 573.652344 418.988281 573.652344 L 484.015625 573.652344 C 497.21875 573.652344 507.953125 562.933594 507.953125 549.753906 L 507.953125 511.191406 C 507.953125 507.191406 504.703125 503.941406 500.691406 503.941406 C 496.6875 503.941406 493.433594 507.191406 493.433594 511.191406 L 493.433594 549.753906 C 493.433594 554.9375 489.210938 559.15625 484.015625 559.15625 L 418.988281 559.15625 C 413.800781 559.15625 409.578125 554.9375 409.578125 549.753906 L 409.578125 174.363281 C 409.578125 167.433594 413.546875 161.195312 419.460938 158.828125 L 500.175781 126.566406 C 505.589844 124.40625 511.871094 126.578125 514.785156 131.613281 C 514.835938 131.710938 514.894531 131.804688 514.953125 131.890625 L 568.699219 215.882812 L 617.800781 292.929688 L 617.800781 463.445312 C 617.800781 467.453125 621.046875 470.695312 625.058594 470.695312 C 629.066406 470.695312 632.320312 467.453125 632.320312 463.445312 L 632.320312 290.820312 C 632.320312 289.441406 631.925781 288.089844 631.183594 286.925781 L 608.726562 251.683594 L 685.375 131.890625 C 685.433594 131.804688 685.488281 131.710938 685.546875 131.613281 C 688.460938 126.578125 694.738281 124.40625 700.148438 126.566406 L 780.867188 158.828125 C 786.78125 161.195312 790.757812 167.433594 790.757812 174.363281 L 790.757812 549.753906 C 790.757812 554.9375 786.53125 559.15625 781.34375 559.15625 L 716.3125 559.15625 C 711.121094 559.15625 706.898438 554.9375 706.898438 549.753906 L 706.898438 511.90625 C 706.898438 507.90625 703.644531 504.65625 699.636719 504.65625 C 695.625 504.65625 692.378906 507.90625 692.378906 511.90625 L 692.378906 549.753906 C 692.378906 562.933594 703.113281 573.652344 716.3125 573.652344 L 781.34375 573.652344 C 794.539062 573.652344 805.277344 562.933594 805.277344 549.753906 L 805.277344 174.363281 C 805.277344 161.570312 797.636719 149.914062 786.261719 145.367188 " fill-opacity="1" fill-rule="nonzero"/></g><path fill="#100f0d" d="M 586.285156 337.246094 C 593.285156 337.246094 598.984375 331.554688 598.984375 324.566406 C 598.984375 317.574219 593.285156 311.886719 586.285156 311.886719 C 579.28125 311.886719 573.585938 317.574219 573.585938 324.566406 C 573.585938 331.554688 579.28125 337.246094 586.285156 337.246094 " fill-opacity="1" fill-rule="nonzero"/><path fill="#100f0d" d="M 586.285156 394.753906 C 593.285156 394.753906 598.984375 389.066406 598.984375 382.074219 C 598.984375 375.082031 593.285156 369.394531 586.285156 369.394531 C 579.28125 369.394531 573.585938 375.082031 573.585938 382.074219 C 573.585938 389.066406 579.28125 394.753906 586.285156 394.753906 " fill-opacity="1" fill-rule="nonzero"/><path fill="#100f0d" d="M 586.285156 452.257812 C 593.285156 452.257812 598.984375 446.570312 598.984375 439.578125 C 598.984375 432.589844 593.285156 426.898438 586.285156 426.898438 C 579.28125 426.898438 573.585938 432.589844 573.585938 439.578125 C 573.585938 446.570312 579.28125 452.257812 586.285156 452.257812 " fill-opacity="1" fill-rule="nonzero"/><path stroke-linecap="butt" transform="matrix(0.748953, 0, 0, 0.75, 517.355478, 522.951437)" fill="none" stroke-linejoin="miter" d="M 2.498267 2.502251 L 187.767341 2.502251 " stroke="#000000" stroke-width="5" stroke-opacity="1" stroke-miterlimit="4"/><path stroke-linecap="round" transform="matrix(3.744764, 0, 0, 3.75, 517.355478, 524.826437)" fill="none" stroke-linejoin="round" d="M 2.500363 -1.49955 L 0.499653 0.000450149 L 2.500363 1.50045 " stroke="#000000" stroke-width="1" stroke-opacity="1" stroke-miterlimit="4"/><path stroke-linecap="round" transform="matrix(3.744764, 0, 0, 3.75, 659.85777, 524.826437)" fill="none" stroke-linejoin="round" d="M -2.499937 -1.49955 L -0.50027 0.000450149 L -2.499937 1.50045 " stroke="#000000" stroke-width="1" stroke-opacity="1" stroke-miterlimit="4"/><path stroke-linecap="butt" transform="matrix(0.000000000000000046, -0.749935, 0.75, 0.000000000000000046, 827.299755, 555.597818)" fill="none" stroke-linejoin="miter" d="M 2.500432 2.501369 L 541.552159 2.501369 " stroke="#000000" stroke-width="5" stroke-opacity="1" stroke-miterlimit="4"/><path stroke-linecap="round" transform="matrix(0.00000000000000023, -3.749676, 3.75, 0.00000000000000023, 829.174754, 555.597818)" fill="none" stroke-linejoin="round" d="M 2.500259 -1.499726 L 0.500086 0.000273813 L 2.500259 1.500274 " stroke="#000000" stroke-width="1" stroke-opacity="1" stroke-miterlimit="4"/><path stroke-linecap="round" transform="matrix(0.00000000000000023, -3.749676, 3.75, 0.00000000000000023, 829.174754, 147.59251)" fill="none" stroke-linejoin="round" d="M -2.499505 -1.499726 L -0.500374 0.000273813 L -2.499505 1.500274 " stroke="#000000" stroke-width="1" stroke-opacity="1" stroke-miterlimit="4"/><g fill="#000000" fill-opacity="1"><g transform="translate(183.400794, 678.676959)"><g><path d="M 15.171875 -8.75 L 16.953125 -8.75 L 16.953125 -2.078125 C 16.128906 -1.359375 15.160156 -0.804688 14.046875 -0.421875 C 12.929688 -0.0351562 11.757812 0.15625 10.53125 0.15625 C 8.78125 0.15625 7.203125 -0.226562 5.796875 -1 C 4.398438 -1.769531 3.300781 -2.832031 2.5 -4.1875 C 1.695312 -5.539062 1.296875 -7.0625 1.296875 -8.75 C 1.296875 -10.4375 1.695312 -11.957031 2.5 -13.3125 C 3.300781 -14.664062 4.398438 -15.726562 5.796875 -16.5 C 7.203125 -17.269531 8.785156 -17.65625 10.546875 -17.65625 C 11.878906 -17.65625 13.101562 -17.441406 14.21875 -17.015625 C 15.34375 -16.585938 16.285156 -15.957031 17.046875 -15.125 L 15.90625 -13.953125 C 14.519531 -15.316406 12.757812 -16 10.625 -16 C 9.207031 -16 7.925781 -15.6875 6.78125 -15.0625 C 5.644531 -14.4375 4.75 -13.566406 4.09375 -12.453125 C 3.445312 -11.347656 3.125 -10.113281 3.125 -8.75 C 3.125 -7.382812 3.445312 -6.148438 4.09375 -5.046875 C 4.75 -3.953125 5.640625 -3.085938 6.765625 -2.453125 C 7.898438 -1.816406 9.175781 -1.5 10.59375 -1.5 C 12.394531 -1.5 13.921875 -1.945312 15.171875 -2.84375 Z M 15.171875 -8.75 "/></g></g></g><g fill="#000000" fill-opacity="1"><g transform="translate(202.722734, 678.676959)"><g><path d="M 4.171875 -10.578125 C 4.585938 -11.460938 5.207031 -12.128906 6.03125 -12.578125 C 6.863281 -13.023438 7.882812 -13.25 9.09375 -13.25 L 9.09375 -11.53125 L 8.671875 -11.546875 C 7.285156 -11.546875 6.203125 -11.117188 5.421875 -10.265625 C 4.640625 -9.421875 4.25 -8.234375 4.25 -6.703125 L 4.25 0 L 2.46875 0 L 2.46875 -13.15625 L 4.171875 -13.15625 Z M 4.171875 -10.578125 "/></g></g></g><g fill="#000000" fill-opacity="1"><g transform="translate(212.746143, 678.676959)"><g><path d="M 7.84375 0.125 C 6.582031 0.125 5.441406 -0.160156 4.421875 -0.734375 C 3.410156 -1.304688 2.613281 -2.101562 2.03125 -3.125 C 1.445312 -4.144531 1.15625 -5.296875 1.15625 -6.578125 C 1.15625 -7.859375 1.445312 -9.003906 2.03125 -10.015625 C 2.613281 -11.035156 3.410156 -11.828125 4.421875 -12.390625 C 5.441406 -12.960938 6.582031 -13.25 7.84375 -13.25 C 9.113281 -13.25 10.253906 -12.960938 11.265625 -12.390625 C 12.285156 -11.828125 13.082031 -11.035156 13.65625 -10.015625 C 14.238281 -9.003906 14.53125 -7.859375 14.53125 -6.578125 C 14.53125 -5.296875 14.238281 -4.144531 13.65625 -3.125 C 13.082031 -2.101562 12.285156 -1.304688 11.265625 -0.734375 C 10.253906 -0.160156 9.113281 0.125 7.84375 0.125 Z M 7.84375 -1.453125 C 8.78125 -1.453125 9.617188 -1.660156 10.359375 -2.078125 C 11.097656 -2.503906 11.675781 -3.109375 12.09375 -3.890625 C 12.507812 -4.679688 12.71875 -5.578125 12.71875 -6.578125 C 12.71875 -7.578125 12.507812 -8.46875 12.09375 -9.25 C 11.675781 -10.03125 11.097656 -10.632812 10.359375 -11.0625 C 9.617188 -11.488281 8.78125 -11.703125 7.84375 -11.703125 C 6.914062 -11.703125 6.078125 -11.488281 5.328125 -11.0625 C 4.585938 -10.632812 4.003906 -10.03125 3.578125 -9.25 C 3.160156 -8.46875 2.953125 -7.578125 2.953125 -6.578125 C 2.953125 -5.578125 3.160156 -4.679688 3.578125 -3.890625 C 4.003906 -3.109375 4.585938 -2.503906 5.328125 -2.078125 C 6.078125 -1.660156 6.914062 -1.453125 7.84375 -1.453125 Z M 5.609375 -15.78125 C 5.304688 -15.78125 5.050781 -15.878906 4.84375 -16.078125 C 4.632812 -16.273438 4.53125 -16.535156 4.53125 -16.859375 C 4.53125 -17.160156 4.632812 -17.414062 4.84375 -17.625 C 5.050781 -17.832031 5.304688 -17.9375 5.609375 -17.9375 C 5.890625 -17.9375 6.132812 -17.832031 6.34375 -17.625 C 6.5625 -17.414062 6.671875 -17.160156 6.671875 -16.859375 C 6.671875 -16.554688 6.566406 -16.300781 6.359375 -16.09375 C 6.148438 -15.882812 5.898438 -15.78125 5.609375 -15.78125 Z M 10.046875 -15.78125 C 9.753906 -15.78125 9.503906 -15.882812 9.296875 -16.09375 C 9.085938 -16.300781 8.984375 -16.554688 8.984375 -16.859375 C 8.984375 -17.160156 9.085938 -17.414062 9.296875 -17.625 C 9.515625 -17.832031 9.765625 -17.9375 10.046875 -17.9375 C 10.347656 -17.9375 10.601562 -17.832031 10.8125 -17.625 C 11.019531 -17.414062 11.125 -17.160156 11.125 -16.859375 C 11.125 -16.535156 11.019531 -16.273438 10.8125 -16.078125 C 10.601562 -15.878906 10.347656 -15.78125 10.046875 -15.78125 Z M 10.046875 -15.78125 "/></g></g></g><g fill="#000000" fill-opacity="1"><g transform="translate(228.418666, 678.676959)"><g><path d="M 11.546875 -9.71875 C 12.765625 -9.457031 13.734375 -8.910156 14.453125 -8.078125 C 15.179688 -7.253906 15.546875 -6.21875 15.546875 -4.96875 C 15.546875 -3.925781 15.289062 -3.019531 14.78125 -2.25 C 14.28125 -1.476562 13.578125 -0.890625 12.671875 -0.484375 C 11.773438 -0.078125 10.757812 0.125 9.625 0.125 C 8.507812 0.125 7.578125 -0.0078125 6.828125 -0.28125 L 7.125 -1.78125 C 7.820312 -1.539062 8.628906 -1.421875 9.546875 -1.421875 C 10.816406 -1.421875 11.832031 -1.738281 12.59375 -2.375 C 13.363281 -3.007812 13.75 -3.894531 13.75 -5.03125 C 13.75 -6.144531 13.347656 -7.015625 12.546875 -7.640625 C 11.742188 -8.265625 10.6875 -8.578125 9.375 -8.578125 L 7.921875 -8.578125 L 7.921875 -10.09375 C 9.304688 -10.113281 10.390625 -10.457031 11.171875 -11.125 C 11.953125 -11.789062 12.34375 -12.691406 12.34375 -13.828125 C 12.34375 -14.828125 12 -15.625 11.3125 -16.21875 C 10.632812 -16.820312 9.695312 -17.125 8.5 -17.125 C 7.164062 -17.125 6.125 -16.734375 5.375 -15.953125 C 4.625 -15.179688 4.25 -14.0625 4.25 -12.59375 L 4.25 0 L 2.46875 0 L 2.46875 -12.453125 C 2.46875 -14.453125 3.019531 -15.988281 4.125 -17.0625 C 5.238281 -18.132812 6.695312 -18.671875 8.5 -18.671875 C 9.632812 -18.671875 10.617188 -18.460938 11.453125 -18.046875 C 12.296875 -17.628906 12.941406 -17.0625 13.390625 -16.34375 C 13.847656 -15.632812 14.078125 -14.820312 14.078125 -13.90625 C 14.078125 -12.945312 13.84375 -12.101562 13.375 -11.375 C 12.90625 -10.65625 12.296875 -10.101562 11.546875 -9.71875 Z M 11.546875 -9.71875 "/></g></g></g><g fill="#000000" fill-opacity="1"><g transform="translate(245.116018, 678.676959)"><g><path d="M 13.921875 -6.03125 L 2.921875 -6.03125 C 3.023438 -4.65625 3.550781 -3.546875 4.5 -2.703125 C 5.445312 -1.867188 6.644531 -1.453125 8.09375 -1.453125 C 8.914062 -1.453125 9.664062 -1.597656 10.34375 -1.890625 C 11.03125 -2.179688 11.625 -2.609375 12.125 -3.171875 L 13.125 -2.03125 C 12.539062 -1.320312 11.8125 -0.785156 10.9375 -0.421875 C 10.0625 -0.0546875 9.097656 0.125 8.046875 0.125 C 6.703125 0.125 5.507812 -0.160156 4.46875 -0.734375 C 3.425781 -1.304688 2.613281 -2.101562 2.03125 -3.125 C 1.445312 -4.144531 1.15625 -5.296875 1.15625 -6.578125 C 1.15625 -7.859375 1.429688 -9.003906 1.984375 -10.015625 C 2.546875 -11.035156 3.3125 -11.828125 4.28125 -12.390625 C 5.257812 -12.960938 6.359375 -13.25 7.578125 -13.25 C 8.796875 -13.25 9.882812 -12.960938 10.84375 -12.390625 C 11.8125 -11.828125 12.570312 -11.039062 13.125 -10.03125 C 13.675781 -9.03125 13.953125 -7.878906 13.953125 -6.578125 Z M 7.578125 -11.71875 C 6.304688 -11.71875 5.238281 -11.3125 4.375 -10.5 C 3.519531 -9.695312 3.035156 -8.644531 2.921875 -7.34375 L 12.25 -7.34375 C 12.132812 -8.644531 11.644531 -9.695312 10.78125 -10.5 C 9.925781 -11.3125 8.859375 -11.71875 7.578125 -11.71875 Z M 7.578125 -11.71875 "/></g></g></g><g fill="#000000" fill-opacity="1"><g transform="translate(260.213623, 678.676959)"><g/></g></g><g fill="#000000" fill-opacity="1"><g transform="translate(266.762584, 678.676959)"><g><path d="M 2.46875 -13.15625 L 4.25 -13.15625 L 4.25 0 L 2.46875 0 Z M 3.375 -16.03125 C 3.007812 -16.03125 2.703125 -16.15625 2.453125 -16.40625 C 2.203125 -16.65625 2.078125 -16.953125 2.078125 -17.296875 C 2.078125 -17.628906 2.203125 -17.921875 2.453125 -18.171875 C 2.703125 -18.421875 3.007812 -18.546875 3.375 -18.546875 C 3.738281 -18.546875 4.046875 -18.425781 4.296875 -18.1875 C 4.546875 -17.945312 4.671875 -17.660156 4.671875 -17.328125 C 4.671875 -16.960938 4.546875 -16.65625 4.296875 -16.40625 C 4.046875 -16.15625 3.738281 -16.03125 3.375 -16.03125 Z M 3.375 -16.03125 "/></g></g></g><g fill="#000000" fill-opacity="1"><g transform="translate(273.486514, 678.676959)"><g><path d="M 9.171875 -13.25 C 10.828125 -13.25 12.140625 -12.769531 13.109375 -11.8125 C 14.085938 -10.851562 14.578125 -9.457031 14.578125 -7.625 L 14.578125 0 L 12.796875 0 L 12.796875 -7.453125 C 12.796875 -8.816406 12.453125 -9.859375 11.765625 -10.578125 C 11.085938 -11.296875 10.113281 -11.65625 8.84375 -11.65625 C 7.425781 -11.65625 6.304688 -11.234375 5.484375 -10.390625 C 4.660156 -9.546875 4.25 -8.382812 4.25 -6.90625 L 4.25 0 L 2.46875 0 L 2.46875 -13.15625 L 4.171875 -13.15625 L 4.171875 -10.71875 C 4.660156 -11.519531 5.332031 -12.140625 6.1875 -12.578125 C 7.039062 -13.023438 8.035156 -13.25 9.171875 -13.25 Z M 9.171875 -13.25 "/></g></g></g><g fill="#000000" fill-opacity="1"><g transform="translate(290.408833, 678.676959)"><g/></g></g><g fill="#000000" fill-opacity="1"><g transform="translate(296.957794, 678.676959)"><g><path d="M 7.921875 0.125 C 6.617188 0.125 5.457031 -0.15625 4.4375 -0.71875 C 3.414062 -1.289062 2.613281 -2.085938 2.03125 -3.109375 C 1.445312 -4.140625 1.15625 -5.296875 1.15625 -6.578125 C 1.15625 -7.859375 1.445312 -9.003906 2.03125 -10.015625 C 2.613281 -11.035156 3.414062 -11.828125 4.4375 -12.390625 C 5.457031 -12.960938 6.617188 -13.25 7.921875 -13.25 C 9.054688 -13.25 10.066406 -13.023438 10.953125 -12.578125 C 11.847656 -12.140625 12.554688 -11.5 13.078125 -10.65625 L 11.75 -9.75 C 11.3125 -10.394531 10.757812 -10.878906 10.09375 -11.203125 C 9.425781 -11.535156 8.703125 -11.703125 7.921875 -11.703125 C 6.972656 -11.703125 6.117188 -11.488281 5.359375 -11.0625 C 4.597656 -10.632812 4.003906 -10.03125 3.578125 -9.25 C 3.160156 -8.46875 2.953125 -7.578125 2.953125 -6.578125 C 2.953125 -5.554688 3.160156 -4.65625 3.578125 -3.875 C 4.003906 -3.101562 4.597656 -2.503906 5.359375 -2.078125 C 6.117188 -1.660156 6.972656 -1.453125 7.921875 -1.453125 C 8.703125 -1.453125 9.425781 -1.609375 10.09375 -1.921875 C 10.757812 -2.242188 11.3125 -2.726562 11.75 -3.375 L 13.078125 -2.46875 C 12.554688 -1.625 11.84375 -0.976562 10.9375 -0.53125 C 10.039062 -0.09375 9.035156 0.125 7.921875 0.125 Z M 7.921875 0.125 "/></g></g></g><g fill="#000000" fill-opacity="1"><g transform="translate(311.03057, 678.676959)"><g><path d="M 18.875 -13.25 C 20.519531 -13.25 21.8125 -12.773438 22.75 -11.828125 C 23.695312 -10.878906 24.171875 -9.476562 24.171875 -7.625 L 24.171875 0 L 22.40625 0 L 22.40625 -7.453125 C 22.40625 -8.816406 22.070312 -9.859375 21.40625 -10.578125 C 20.75 -11.296875 19.820312 -11.65625 18.625 -11.65625 C 17.257812 -11.65625 16.179688 -11.234375 15.390625 -10.390625 C 14.609375 -9.546875 14.21875 -8.382812 14.21875 -6.90625 L 14.21875 0 L 12.453125 0 L 12.453125 -7.453125 C 12.453125 -8.816406 12.117188 -9.859375 11.453125 -10.578125 C 10.796875 -11.296875 9.863281 -11.65625 8.65625 -11.65625 C 7.300781 -11.65625 6.226562 -11.234375 5.4375 -10.390625 C 4.644531 -9.546875 4.25 -8.382812 4.25 -6.90625 L 4.25 0 L 2.46875 0 L 2.46875 -13.15625 L 4.171875 -13.15625 L 4.171875 -10.75 C 4.640625 -11.550781 5.289062 -12.164062 6.125 -12.59375 C 6.957031 -13.03125 7.914062 -13.25 9 -13.25 C 10.101562 -13.25 11.054688 -13.015625 11.859375 -12.546875 C 12.671875 -12.078125 13.273438 -11.382812 13.671875 -10.46875 C 14.160156 -11.34375 14.859375 -12.023438 15.765625 -12.515625 C 16.671875 -13.003906 17.707031 -13.25 18.875 -13.25 Z M 18.875 -13.25 "/></g></g></g><g fill="#000000" fill-opacity="1"><g transform="translate(505.773403, 678.676959)"><g><path d="M 7.671875 0.15625 C 6.367188 0.15625 5.125 -0.0507812 3.9375 -0.46875 C 2.75 -0.882812 1.828125 -1.4375 1.171875 -2.125 L 1.90625 -3.546875 C 2.53125 -2.910156 3.367188 -2.394531 4.421875 -2 C 5.472656 -1.613281 6.554688 -1.421875 7.671875 -1.421875 C 9.242188 -1.421875 10.421875 -1.707031 11.203125 -2.28125 C 11.984375 -2.863281 12.375 -3.613281 12.375 -4.53125 C 12.375 -5.226562 12.160156 -5.785156 11.734375 -6.203125 C 11.304688 -6.617188 10.785156 -6.9375 10.171875 -7.15625 C 9.554688 -7.382812 8.695312 -7.632812 7.59375 -7.90625 C 6.28125 -8.238281 5.234375 -8.554688 4.453125 -8.859375 C 3.671875 -9.171875 3 -9.640625 2.4375 -10.265625 C 1.875 -10.898438 1.59375 -11.757812 1.59375 -12.84375 C 1.59375 -13.726562 1.828125 -14.53125 2.296875 -15.25 C 2.765625 -15.976562 3.484375 -16.5625 4.453125 -17 C 5.421875 -17.4375 6.617188 -17.65625 8.046875 -17.65625 C 9.046875 -17.65625 10.023438 -17.515625 10.984375 -17.234375 C 11.941406 -16.960938 12.769531 -16.582031 13.46875 -16.09375 L 12.84375 -14.625 C 12.113281 -15.101562 11.332031 -15.460938 10.5 -15.703125 C 9.664062 -15.953125 8.847656 -16.078125 8.046875 -16.078125 C 6.515625 -16.078125 5.359375 -15.78125 4.578125 -15.1875 C 3.804688 -14.59375 3.421875 -13.832031 3.421875 -12.90625 C 3.421875 -12.195312 3.632812 -11.628906 4.0625 -11.203125 C 4.488281 -10.785156 5.019531 -10.460938 5.65625 -10.234375 C 6.300781 -10.015625 7.164062 -9.769531 8.25 -9.5 C 9.53125 -9.1875 10.566406 -8.875 11.359375 -8.5625 C 12.148438 -8.25 12.820312 -7.78125 13.375 -7.15625 C 13.925781 -6.53125 14.203125 -5.6875 14.203125 -4.625 C 14.203125 -3.738281 13.960938 -2.929688 13.484375 -2.203125 C 13.015625 -1.484375 12.285156 -0.910156 11.296875 -0.484375 C 10.316406 -0.0546875 9.109375 0.15625 7.671875 0.15625 Z M 7.671875 0.15625 "/></g></g></g><g fill="#000000" fill-opacity="1"><g transform="translate(727.865829, 678.676959)"><g><path d="M 21.03125 -17.5 L 21.03125 0 L 19.25 0 L 19.25 -14 L 12.375 -2.21875 L 11.5 -2.21875 L 4.625 -13.921875 L 4.625 0 L 2.84375 0 L 2.84375 -17.5 L 4.375 -17.5 L 11.96875 -4.53125 L 19.5 -17.5 Z M 21.03125 -17.5 "/></g></g></g><g fill="#000000" fill-opacity="1"><g transform="translate(958.782473, 678.676959)"><g><path d="M 2.84375 -17.5 L 4.703125 -17.5 L 4.703125 -1.59375 L 14.5 -1.59375 L 14.5 0 L 2.84375 0 Z M 2.84375 -17.5 "/></g></g></g><g fill="#000000" fill-opacity="1"><g transform="translate(251.510162, 780.778854)"><g><path d="M 13.828125 -4.671875 L 4.078125 -4.671875 L 1.96875 0 L 0.046875 0 L 8.046875 -17.5 L 9.875 -17.5 L 17.875 0 L 15.921875 0 Z M 13.15625 -6.171875 L 8.953125 -15.578125 L 4.75 -6.171875 Z M 13.15625 -6.171875 "/></g></g></g><g fill="#000000" fill-opacity="1"><g transform="translate(498.12106, 780.778854)"><g><path d="M 5.90625 -10.328125 C 8.4375 -10.328125 10.28125 -9.867188 11.4375 -8.953125 C 12.59375 -8.046875 13.171875 -6.78125 13.171875 -5.15625 C 13.171875 -4.132812 12.929688 -3.222656 12.453125 -2.421875 C 11.984375 -1.617188 11.273438 -0.988281 10.328125 -0.53125 C 9.378906 -0.0703125 8.210938 0.15625 6.828125 0.15625 C 5.578125 0.15625 4.390625 -0.046875 3.265625 -0.453125 C 2.140625 -0.867188 1.234375 -1.414062 0.546875 -2.09375 L 1.421875 -3.53125 C 2.003906 -2.925781 2.769531 -2.4375 3.71875 -2.0625 C 4.675781 -1.6875 5.703125 -1.5 6.796875 -1.5 C 8.242188 -1.5 9.363281 -1.820312 10.15625 -2.46875 C 10.945312 -3.125 11.34375 -3.992188 11.34375 -5.078125 C 11.34375 -6.273438 10.894531 -7.179688 10 -7.796875 C 9.113281 -8.410156 7.613281 -8.71875 5.5 -8.71875 L 1.78125 -8.71875 L 2.671875 -17.5 L 12.25 -17.5 L 12.25 -15.90625 L 4.25 -15.90625 L 3.65625 -10.328125 Z M 5.90625 -10.328125 "/></g></g></g><g fill="#000000" fill-opacity="1"><g transform="translate(512.268818, 780.778854)"><g><path d="M 16.171875 -4.59375 L 12.671875 -4.59375 L 12.671875 0 L 10.875 0 L 10.875 -4.59375 L 1 -4.59375 L 1 -5.90625 L 10.28125 -17.5 L 12.28125 -17.5 L 3.328125 -6.203125 L 10.921875 -6.203125 L 10.921875 -10.25 L 12.671875 -10.25 L 12.671875 -6.203125 L 16.171875 -6.203125 Z M 16.171875 -4.59375 "/></g></g></g><g fill="#000000" fill-opacity="1"><g transform="translate(725.369736, 780.778854)"><g><path d="M 5.90625 -10.328125 C 8.4375 -10.328125 10.28125 -9.867188 11.4375 -8.953125 C 12.59375 -8.046875 13.171875 -6.78125 13.171875 -5.15625 C 13.171875 -4.132812 12.929688 -3.222656 12.453125 -2.421875 C 11.984375 -1.617188 11.273438 -0.988281 10.328125 -0.53125 C 9.378906 -0.0703125 8.210938 0.15625 6.828125 0.15625 C 5.578125 0.15625 4.390625 -0.046875 3.265625 -0.453125 C 2.140625 -0.867188 1.234375 -1.414062 0.546875 -2.09375 L 1.421875 -3.53125 C 2.003906 -2.925781 2.769531 -2.4375 3.71875 -2.0625 C 4.675781 -1.6875 5.703125 -1.5 6.796875 -1.5 C 8.242188 -1.5 9.363281 -1.820312 10.15625 -2.46875 C 10.945312 -3.125 11.34375 -3.992188 11.34375 -5.078125 C 11.34375 -6.273438 10.894531 -7.179688 10 -7.796875 C 9.113281 -8.410156 7.613281 -8.71875 5.5 -8.71875 L 1.78125 -8.71875 L 2.671875 -17.5 L 12.25 -17.5 L 12.25 -15.90625 L 4.25 -15.90625 L 3.65625 -10.328125 Z M 5.90625 -10.328125 "/></g></g></g><g fill="#000000" fill-opacity="1"><g transform="translate(739.517493, 780.778854)"><g><path d="M 13.65625 -17.5 L 13.65625 -16.21875 L 6.328125 0 L 4.375 0 L 11.578125 -15.90625 L 2.578125 -15.90625 L 2.578125 -12.625 L 0.796875 -12.625 L 0.796875 -17.5 Z M 13.65625 -17.5 "/></g></g></g><g fill="#000000" fill-opacity="1"><g transform="translate(951.458255, 780.778854)"><g><path d="M 5.90625 -10.328125 C 8.4375 -10.328125 10.28125 -9.867188 11.4375 -8.953125 C 12.59375 -8.046875 13.171875 -6.78125 13.171875 -5.15625 C 13.171875 -4.132812 12.929688 -3.222656 12.453125 -2.421875 C 11.984375 -1.617188 11.273438 -0.988281 10.328125 -0.53125 C 9.378906 -0.0703125 8.210938 0.15625 6.828125 0.15625 C 5.578125 0.15625 4.390625 -0.046875 3.265625 -0.453125 C 2.140625 -0.867188 1.234375 -1.414062 0.546875 -2.09375 L 1.421875 -3.53125 C 2.003906 -2.925781 2.769531 -2.4375 3.71875 -2.0625 C 4.675781 -1.6875 5.703125 -1.5 6.796875 -1.5 C 8.242188 -1.5 9.363281 -1.820312 10.15625 -2.46875 C 10.945312 -3.125 11.34375 -3.992188 11.34375 -5.078125 C 11.34375 -6.273438 10.894531 -7.179688 10 -7.796875 C 9.113281 -8.410156 7.613281 -8.71875 5.5 -8.71875 L 1.78125 -8.71875 L 2.671875 -17.5 L 12.25 -17.5 L 12.25 -15.90625 L 4.25 -15.90625 L 3.65625 -10.328125 Z M 5.90625 -10.328125 "/></g></g></g><g fill="#000000" fill-opacity="1"><g transform="translate(965.606012, 780.778854)"><g><path d="M 6.75 -17.65625 C 9.0625 -17.65625 10.832031 -16.890625 12.0625 -15.359375 C 13.300781 -13.835938 13.921875 -11.6875 13.921875 -8.90625 C 13.921875 -6.945312 13.585938 -5.289062 12.921875 -3.9375 C 12.253906 -2.59375 11.320312 -1.570312 10.125 -0.875 C 8.925781 -0.1875 7.523438 0.15625 5.921875 0.15625 C 4.191406 0.15625 2.8125 -0.160156 1.78125 -0.796875 L 2.5 -2.25 C 3.332031 -1.695312 4.46875 -1.421875 5.90625 -1.421875 C 7.832031 -1.421875 9.34375 -2.03125 10.4375 -3.25 C 11.539062 -4.476562 12.09375 -6.257812 12.09375 -8.59375 C 12.09375 -9.03125 12.070312 -9.507812 12.03125 -10.03125 C 11.59375 -9.070312 10.898438 -8.332031 9.953125 -7.8125 C 9.003906 -7.289062 7.910156 -7.03125 6.671875 -7.03125 C 5.523438 -7.03125 4.503906 -7.242188 3.609375 -7.671875 C 2.722656 -8.109375 2.03125 -8.722656 1.53125 -9.515625 C 1.03125 -10.304688 0.78125 -11.226562 0.78125 -12.28125 C 0.78125 -13.34375 1.035156 -14.28125 1.546875 -15.09375 C 2.066406 -15.914062 2.78125 -16.546875 3.6875 -16.984375 C 4.59375 -17.429688 5.613281 -17.65625 6.75 -17.65625 Z M 6.953125 -8.546875 C 7.835938 -8.546875 8.613281 -8.710938 9.28125 -9.046875 C 9.957031 -9.378906 10.488281 -9.835938 10.875 -10.421875 C 11.257812 -11.003906 11.453125 -11.65625 11.453125 -12.375 C 11.453125 -13.039062 11.269531 -13.65625 10.90625 -14.21875 C 10.550781 -14.789062 10.023438 -15.25 9.328125 -15.59375 C 8.628906 -15.945312 7.796875 -16.125 6.828125 -16.125 C 5.554688 -16.125 4.523438 -15.773438 3.734375 -15.078125 C 2.941406 -14.390625 2.546875 -13.472656 2.546875 -12.328125 C 2.546875 -11.171875 2.941406 -10.25 3.734375 -9.5625 C 4.523438 -8.882812 5.597656 -8.546875 6.953125 -8.546875 Z M 6.953125 -8.546875 "/></g></g></g><g fill="#000000" fill-opacity="1"><g transform="translate(251.053131, 920.147825)"><g><path d="M 13.875 -9.03125 C 15.019531 -8.78125 15.90625 -8.28125 16.53125 -7.53125 C 17.15625 -6.789062 17.46875 -5.835938 17.46875 -4.671875 C 17.46875 -3.171875 16.914062 -2.015625 15.8125 -1.203125 C 14.707031 -0.398438 13.070312 0 10.90625 0 L 2.84375 0 L 2.84375 -17.5 L 10.40625 -17.5 C 12.351562 -17.5 13.863281 -17.109375 14.9375 -16.328125 C 16.007812 -15.546875 16.546875 -14.4375 16.546875 -13 C 16.546875 -12.03125 16.304688 -11.207031 15.828125 -10.53125 C 15.359375 -9.863281 14.707031 -9.363281 13.875 -9.03125 Z M 4.703125 -15.96875 L 4.703125 -9.625 L 10.28125 -9.625 C 11.695312 -9.625 12.785156 -9.894531 13.546875 -10.4375 C 14.316406 -10.976562 14.703125 -11.765625 14.703125 -12.796875 C 14.703125 -13.828125 14.316406 -14.613281 13.546875 -15.15625 C 12.785156 -15.695312 11.695312 -15.96875 10.28125 -15.96875 Z M 10.875 -1.53125 C 12.4375 -1.53125 13.617188 -1.796875 14.421875 -2.328125 C 15.222656 -2.859375 15.625 -3.691406 15.625 -4.828125 C 15.625 -7.003906 14.039062 -8.09375 10.875 -8.09375 L 4.703125 -8.09375 L 4.703125 -1.53125 Z M 10.875 -1.53125 "/></g></g></g><g fill="#000000" fill-opacity="1"><g transform="translate(496.937467, 920.147825)"><g><path d="M 16.171875 -4.59375 L 12.671875 -4.59375 L 12.671875 0 L 10.875 0 L 10.875 -4.59375 L 1 -4.59375 L 1 -5.90625 L 10.28125 -17.5 L 12.28125 -17.5 L 3.328125 -6.203125 L 10.921875 -6.203125 L 10.921875 -10.25 L 12.671875 -10.25 L 12.671875 -6.203125 L 16.171875 -6.203125 Z M 16.171875 -4.59375 "/></g></g></g><g fill="#000000" fill-opacity="1"><g transform="translate(513.45985, 920.147825)"><g><path d="M 16.171875 -4.59375 L 12.671875 -4.59375 L 12.671875 0 L 10.875 0 L 10.875 -4.59375 L 1 -4.59375 L 1 -5.90625 L 10.28125 -17.5 L 12.28125 -17.5 L 3.328125 -6.203125 L 10.921875 -6.203125 L 10.921875 -10.25 L 12.671875 -10.25 L 12.671875 -6.203125 L 16.171875 -6.203125 Z M 16.171875 -4.59375 "/></g></g></g><g fill="#000000" fill-opacity="1"><g transform="translate(724.174423, 920.147825)"><g><path d="M 16.171875 -4.59375 L 12.671875 -4.59375 L 12.671875 0 L 10.875 0 L 10.875 -4.59375 L 1 -4.59375 L 1 -5.90625 L 10.28125 -17.5 L 12.28125 -17.5 L 3.328125 -6.203125 L 10.921875 -6.203125 L 10.921875 -10.25 L 12.671875 -10.25 L 12.671875 -6.203125 L 16.171875 -6.203125 Z M 16.171875 -4.59375 "/></g></g></g><g fill="#000000" fill-opacity="1"><g transform="translate(740.696806, 920.147825)"><g><path d="M 13.65625 -17.5 L 13.65625 -16.21875 L 6.328125 0 L 4.375 0 L 11.578125 -15.90625 L 2.578125 -15.90625 L 2.578125 -12.625 L 0.796875 -12.625 L 0.796875 -17.5 Z M 13.65625 -17.5 "/></g></g></g><g fill="#000000" fill-opacity="1"><g transform="translate(950.274661, 920.147825)"><g><path d="M 16.171875 -4.59375 L 12.671875 -4.59375 L 12.671875 0 L 10.875 0 L 10.875 -4.59375 L 1 -4.59375 L 1 -5.90625 L 10.28125 -17.5 L 12.28125 -17.5 L 3.328125 -6.203125 L 10.921875 -6.203125 L 10.921875 -10.25 L 12.671875 -10.25 L 12.671875 -6.203125 L 16.171875 -6.203125 Z M 16.171875 -4.59375 "/></g></g></g><g fill="#000000" fill-opacity="1"><g transform="translate(966.797044, 920.147825)"><g><path d="M 6.75 -17.65625 C 9.0625 -17.65625 10.832031 -16.890625 12.0625 -15.359375 C 13.300781 -13.835938 13.921875 -11.6875 13.921875 -8.90625 C 13.921875 -6.945312 13.585938 -5.289062 12.921875 -3.9375 C 12.253906 -2.59375 11.320312 -1.570312 10.125 -0.875 C 8.925781 -0.1875 7.523438 0.15625 5.921875 0.15625 C 4.191406 0.15625 2.8125 -0.160156 1.78125 -0.796875 L 2.5 -2.25 C 3.332031 -1.695312 4.46875 -1.421875 5.90625 -1.421875 C 7.832031 -1.421875 9.34375 -2.03125 10.4375 -3.25 C 11.539062 -4.476562 12.09375 -6.257812 12.09375 -8.59375 C 12.09375 -9.03125 12.070312 -9.507812 12.03125 -10.03125 C 11.59375 -9.070312 10.898438 -8.332031 9.953125 -7.8125 C 9.003906 -7.289062 7.910156 -7.03125 6.671875 -7.03125 C 5.523438 -7.03125 4.503906 -7.242188 3.609375 -7.671875 C 2.722656 -8.109375 2.03125 -8.722656 1.53125 -9.515625 C 1.03125 -10.304688 0.78125 -11.226562 0.78125 -12.28125 C 0.78125 -13.34375 1.035156 -14.28125 1.546875 -15.09375 C 2.066406 -15.914062 2.78125 -16.546875 3.6875 -16.984375 C 4.59375 -17.429688 5.613281 -17.65625 6.75 -17.65625 Z M 6.953125 -8.546875 C 7.835938 -8.546875 8.613281 -8.710938 9.28125 -9.046875 C 9.957031 -9.378906 10.488281 -9.835938 10.875 -10.421875 C 11.257812 -11.003906 11.453125 -11.65625 11.453125 -12.375 C 11.453125 -13.039062 11.269531 -13.65625 10.90625 -14.21875 C 10.550781 -14.789062 10.023438 -15.25 9.328125 -15.59375 C 8.628906 -15.945312 7.796875 -16.125 6.828125 -16.125 C 5.554688 -16.125 4.523438 -15.773438 3.734375 -15.078125 C 2.941406 -14.390625 2.546875 -13.472656 2.546875 -12.328125 C 2.546875 -11.171875 2.941406 -10.25 3.734375 -9.5625 C 4.523438 -8.882812 5.597656 -8.546875 6.953125 -8.546875 Z M 6.953125 -8.546875 "/></g></g></g><g fill="#000000" fill-opacity="1"><g transform="translate(251.486725, 1059.516677)"><g><path d="M 10.453125 0.15625 C 8.710938 0.15625 7.144531 -0.226562 5.75 -1 C 4.363281 -1.769531 3.273438 -2.832031 2.484375 -4.1875 C 1.691406 -5.539062 1.296875 -7.0625 1.296875 -8.75 C 1.296875 -10.4375 1.691406 -11.957031 2.484375 -13.3125 C 3.273438 -14.664062 4.367188 -15.726562 5.765625 -16.5 C 7.171875 -17.269531 8.738281 -17.65625 10.46875 -17.65625 C 11.769531 -17.65625 12.96875 -17.4375 14.0625 -17 C 15.164062 -16.5625 16.101562 -15.925781 16.875 -15.09375 L 15.703125 -13.921875 C 14.335938 -15.304688 12.613281 -16 10.53125 -16 C 9.144531 -16 7.882812 -15.679688 6.75 -15.046875 C 5.613281 -14.410156 4.722656 -13.539062 4.078125 -12.4375 C 3.441406 -11.34375 3.125 -10.113281 3.125 -8.75 C 3.125 -7.382812 3.441406 -6.148438 4.078125 -5.046875 C 4.722656 -3.953125 5.613281 -3.085938 6.75 -2.453125 C 7.882812 -1.816406 9.144531 -1.5 10.53125 -1.5 C 12.625 -1.5 14.347656 -2.195312 15.703125 -3.59375 L 16.875 -2.421875 C 16.101562 -1.585938 15.164062 -0.945312 14.0625 -0.5 C 12.957031 -0.0625 11.753906 0.15625 10.453125 0.15625 Z M 10.453125 0.15625 "/></g></g></g><g fill="#000000" fill-opacity="1"><g transform="translate(501.578091, 1059.516677)"><g><path d="M 13.65625 -17.5 L 13.65625 -16.21875 L 6.328125 0 L 4.375 0 L 11.578125 -15.90625 L 2.578125 -15.90625 L 2.578125 -12.625 L 0.796875 -12.625 L 0.796875 -17.5 Z M 13.65625 -17.5 "/></g></g></g><g fill="#000000" fill-opacity="1"><g transform="translate(516.300754, 1059.516677)"><g><path d="M 6.15625 -17.5 L 6.15625 0 L 4.34375 0 L 4.34375 -15.90625 L 0.21875 -15.90625 L 0.21875 -17.5 Z M 6.15625 -17.5 "/></g></g></g><g fill="#000000" fill-opacity="1"><g transform="translate(724.174423, 1059.516677)"><g><path d="M 13.65625 -17.5 L 13.65625 -16.21875 L 6.328125 0 L 4.375 0 L 11.578125 -15.90625 L 2.578125 -15.90625 L 2.578125 -12.625 L 0.796875 -12.625 L 0.796875 -17.5 Z M 13.65625 -17.5 "/></g></g></g><g fill="#000000" fill-opacity="1"><g transform="translate(738.897086, 1059.516677)"><g><path d="M 16.171875 -4.59375 L 12.671875 -4.59375 L 12.671875 0 L 10.875 0 L 10.875 -4.59375 L 1 -4.59375 L 1 -5.90625 L 10.28125 -17.5 L 12.28125 -17.5 L 3.328125 -6.203125 L 10.921875 -6.203125 L 10.921875 -10.25 L 12.671875 -10.25 L 12.671875 -6.203125 L 16.171875 -6.203125 Z M 16.171875 -4.59375 "/></g></g></g><g fill="#000000" fill-opacity="1"><g transform="translate(951.177005, 1059.516677)"><g><path d="M 13.65625 -17.5 L 13.65625 -16.21875 L 6.328125 0 L 4.375 0 L 11.578125 -15.90625 L 2.578125 -15.90625 L 2.578125 -12.625 L 0.796875 -12.625 L 0.796875 -17.5 Z M 13.65625 -17.5 "/></g></g></g><g fill="#000000" fill-opacity="1"><g transform="translate(965.899668, 1059.516677)"><g><path d="M 8.546875 -10.46875 C 9.703125 -10.46875 10.722656 -10.25 11.609375 -9.8125 C 12.503906 -9.382812 13.203125 -8.773438 13.703125 -7.984375 C 14.203125 -7.191406 14.453125 -6.269531 14.453125 -5.21875 C 14.453125 -4.15625 14.191406 -3.210938 13.671875 -2.390625 C 13.160156 -1.578125 12.445312 -0.945312 11.53125 -0.5 C 10.625 -0.0625 9.601562 0.15625 8.46875 0.15625 C 6.15625 0.15625 4.378906 -0.601562 3.140625 -2.125 C 1.910156 -3.65625 1.296875 -5.8125 1.296875 -8.59375 C 1.296875 -10.550781 1.628906 -12.203125 2.296875 -13.546875 C 2.960938 -14.898438 3.894531 -15.921875 5.09375 -16.609375 C 6.300781 -17.304688 7.703125 -17.65625 9.296875 -17.65625 C 11.035156 -17.65625 12.421875 -17.335938 13.453125 -16.703125 L 12.71875 -15.25 C 11.882812 -15.800781 10.753906 -16.078125 9.328125 -16.078125 C 7.390625 -16.078125 5.867188 -15.460938 4.765625 -14.234375 C 3.671875 -13.015625 3.125 -11.238281 3.125 -8.90625 C 3.125 -8.488281 3.148438 -8.007812 3.203125 -7.46875 C 3.628906 -8.425781 4.316406 -9.164062 5.265625 -9.6875 C 6.222656 -10.207031 7.316406 -10.46875 8.546875 -10.46875 Z M 8.40625 -1.375 C 9.664062 -1.375 10.691406 -1.71875 11.484375 -2.40625 C 12.273438 -3.101562 12.671875 -4.023438 12.671875 -5.171875 C 12.671875 -6.328125 12.273438 -7.242188 11.484375 -7.921875 C 10.691406 -8.609375 9.625 -8.953125 8.28125 -8.953125 C 7.394531 -8.953125 6.613281 -8.785156 5.9375 -8.453125 C 5.257812 -8.117188 4.726562 -7.660156 4.34375 -7.078125 C 3.96875 -6.492188 3.78125 -5.84375 3.78125 -5.125 C 3.78125 -4.457031 3.957031 -3.835938 4.3125 -3.265625 C 4.664062 -2.703125 5.191406 -2.242188 5.890625 -1.890625 C 6.597656 -1.546875 7.4375 -1.375 8.40625 -1.375 Z M 8.40625 -1.375 "/></g></g></g><path fill="#000000" d="M 120.675781 638.175781 L 120.675781 1120.285156 M 400.285156 638.175781 L 400.285156 1120.285156 M 626.632812 638.175781 L 626.632812 1120.285156 M 852.980469 638.175781 L 852.980469 1120.285156 M 1079.324219 638.175781 L 1079.324219 1120.285156 M 120 637.503906 L 1080 637.503906 M 120 702.855469 L 1080 702.855469 M 120 842.222656 L 1080 842.222656 M 120 981.589844 L 1080 981.589844 M 120 1120.960938 L 1080 1120.960938 " fill-opacity="1" fill-rule="nonzero"/><g clip-path="url(#18ebb67493)"><path stroke-linecap="butt" transform="matrix(0.75, 0, 0, 0.75, 120.000018, 636.826963)" fill="none" stroke-linejoin="miter" d="M 0.901018 1.798425 L 0.901018 644.610982 M 373.713551 1.798425 L 373.713551 644.610982 M 675.510453 1.798425 L 675.510453 644.610982 M 977.307355 1.798425 L 977.307355 644.610982 M 1279.099049 1.798425 L 1279.099049 644.610982 M -0.0000240533 0.902591 L 1280.000091 0.902591 M -0.0000240533 88.038016 L 1280.000091 88.038016 M -0.0000240533 273.860949 L 1280.000091 273.860949 M -0.0000240533 459.683882 L 1280.000091 459.683882 M -0.0000240533 645.512024 L 1280.000091 645.512024 " stroke="#000000" stroke-width="1.8" stroke-opacity="1" stroke-miterlimit="4"/></g><g fill="#000000" fill-opacity="1"><g transform="translate(517.355478, 316.990176)"><g><path d="M 17.421875 -5.890625 L 5.140625 -5.890625 L 2.484375 0 L 0.0625 0 L 10.140625 -22.046875 L 12.4375 -22.046875 L 22.515625 0 L 20.0625 0 Z M 16.5625 -7.78125 L 11.28125 -19.625 L 5.984375 -7.78125 Z M 16.5625 -7.78125 "/></g></g></g><g fill="#000000" fill-opacity="1"><g transform="translate(853.552392, 362.830231)"><g><path d="M 13.171875 0.1875 C 10.984375 0.1875 9.007812 -0.289062 7.25 -1.25 C 5.5 -2.21875 4.125 -3.554688 3.125 -5.265625 C 2.132812 -6.984375 1.640625 -8.90625 1.640625 -11.03125 C 1.640625 -13.144531 2.132812 -15.054688 3.125 -16.765625 C 4.125 -18.484375 5.503906 -19.820312 7.265625 -20.78125 C 9.035156 -21.75 11.015625 -22.234375 13.203125 -22.234375 C 14.835938 -22.234375 16.347656 -21.957031 17.734375 -21.40625 C 19.117188 -20.863281 20.296875 -20.070312 21.265625 -19.03125 L 19.78125 -17.546875 C 18.0625 -19.285156 15.890625 -20.15625 13.265625 -20.15625 C 11.515625 -20.15625 9.925781 -19.753906 8.5 -18.953125 C 7.070312 -18.160156 5.953125 -17.070312 5.140625 -15.6875 C 4.335938 -14.300781 3.9375 -12.75 3.9375 -11.03125 C 3.9375 -9.300781 4.335938 -7.742188 5.140625 -6.359375 C 5.953125 -4.972656 7.070312 -3.878906 8.5 -3.078125 C 9.925781 -2.285156 11.515625 -1.890625 13.265625 -1.890625 C 15.910156 -1.890625 18.082031 -2.769531 19.78125 -4.53125 L 21.265625 -3.0625 C 20.296875 -2.007812 19.113281 -1.203125 17.71875 -0.640625 C 16.320312 -0.0859375 14.804688 0.1875 13.171875 0.1875 Z M 13.171875 0.1875 "/></g></g></g><g fill="#000000" fill-opacity="1"><g transform="translate(576.249937, 566.850457)"><g><path d="M 17.484375 -11.375 C 18.929688 -11.0625 20.046875 -10.4375 20.828125 -9.5 C 21.617188 -8.5625 22.015625 -7.359375 22.015625 -5.890625 C 22.015625 -4.003906 21.316406 -2.550781 19.921875 -1.53125 C 18.523438 -0.507812 16.460938 0 13.734375 0 L 3.59375 0 L 3.59375 -22.046875 L 13.109375 -22.046875 C 15.566406 -22.046875 17.472656 -21.550781 18.828125 -20.5625 C 20.179688 -19.582031 20.859375 -18.1875 20.859375 -16.375 C 20.859375 -15.15625 20.554688 -14.117188 19.953125 -13.265625 C 19.359375 -12.421875 18.535156 -11.789062 17.484375 -11.375 Z M 5.921875 -20.125 L 5.921875 -12.125 L 12.953125 -12.125 C 14.734375 -12.125 16.101562 -12.460938 17.0625 -13.140625 C 18.03125 -13.828125 18.515625 -14.820312 18.515625 -16.125 C 18.515625 -17.425781 18.03125 -18.414062 17.0625 -19.09375 C 16.101562 -19.78125 14.734375 -20.125 12.953125 -20.125 Z M 13.703125 -1.921875 C 15.671875 -1.921875 17.160156 -2.253906 18.171875 -2.921875 C 19.179688 -3.597656 19.6875 -4.648438 19.6875 -6.078125 C 19.6875 -8.828125 17.691406 -10.203125 13.703125 -10.203125 L 5.921875 -10.203125 L 5.921875 -1.921875 Z M 13.703125 -1.921875 "/></g></g></g></svg>